<svg width="38" height="38" viewBox="0 0 38 38" fill="none" xmlns="http://www.w3.org/2000/svg">
<path opacity="0.2" d="M0 3C0 1.34315 1.34315 0 3 0H35C36.6569 0 38 1.34315 38 3V35C38 36.6569 36.6569 38 35 38H3C1.34315 38 0 36.6569 0 35V3Z" fill="#71CC16"/>
<path d="M26 9H12C11.2044 9 10.4413 9.31607 9.87868 9.87868C9.31607 10.4413 9 11.2044 9 12V22C9 22.7956 9.31607 23.5587 9.87868 24.1213C10.4413 24.6839 11.2044 25 12 25H15V27H12C11.7348 27 11.4804 27.1054 11.2929 27.2929C11.1054 27.4804 11 27.7348 11 28C11 28.2652 11.1054 28.5196 11.2929 28.7071C11.4804 28.8946 11.7348 29 12 29H26C26.2652 29 26.5196 28.8946 26.7071 28.7071C26.8946 28.5196 27 28.2652 27 28C27 27.7348 26.8946 27.4804 26.7071 27.2929C26.5196 27.1054 26.2652 27 26 27H23V25H26C26.7956 25 27.5587 24.6839 28.1213 24.1213C28.6839 23.5587 29 22.7956 29 22V12C29 11.2044 28.6839 10.4413 28.1213 9.87868C27.5587 9.31607 26.7956 9 26 9ZM21 27H17V25H21V27ZM27 22C27 22.2652 26.8946 22.5196 26.7071 22.7071C26.5196 22.8946 26.2652 23 26 23H12C11.7348 23 11.4804 22.8946 11.2929 22.7071C11.1054 22.5196 11 22.2652 11 22V21H27V22ZM27 19H11V12C11 11.7348 11.1054 11.4804 11.2929 11.2929C11.4804 11.1054 11.7348 11 12 11H26C26.2652 11 26.5196 11.1054 26.7071 11.2929C26.8946 11.4804 27 11.7348 27 12V19Z" fill="#096601"/>
</svg>
