<svg width="38" height="38" viewBox="0 0 38 38" fill="none" xmlns="http://www.w3.org/2000/svg">
<path opacity="0.2" d="M0 3C0 1.34315 1.34315 0 3 0H35C36.6569 0 38 1.34315 38 3V35C38 36.6569 36.6569 38 35 38H3C1.34315 38 0 36.6569 0 35V3Z" fill="#71CC16"/>
<path d="M25.42 16.21C24.8083 14.8058 23.7529 13.641 22.4157 12.8942C21.0785 12.1473 19.5333 11.8597 18.0169 12.0754C16.5005 12.291 15.0967 12.9981 14.0207 14.0881C12.9447 15.1781 12.256 16.591 12.06 18.11C11.1066 18.3384 10.2702 18.9089 9.70973 19.7132C9.14925 20.5176 8.90368 21.4998 9.01966 22.4732C9.13564 23.4467 9.60509 24.3437 10.3389 24.9939C11.0726 25.6441 12.0196 26.0021 13 26H24C25.1994 25.9967 26.3576 25.5624 27.2634 24.7763C28.1692 23.9902 28.7623 22.9047 28.9344 21.7178C29.1066 20.5308 28.8464 19.3216 28.2012 18.3105C27.5561 17.2994 26.569 16.554 25.42 16.21ZM24 24H13C12.4696 24 11.9609 23.7893 11.5858 23.4142C11.2107 23.0392 11 22.5305 11 22C11 21.4696 11.2107 20.9609 11.5858 20.5858C11.9609 20.2107 12.4696 20 13 20C13.2652 20 13.5196 19.8947 13.7071 19.7071C13.8946 19.5196 14 19.2652 14 19C14.0026 17.8173 14.4243 16.6738 15.1903 15.7726C15.9563 14.8714 17.0169 14.271 18.1837 14.0779C19.3506 13.8848 20.5481 14.1116 21.5636 14.718C22.579 15.3244 23.3466 16.2712 23.73 17.39C23.7887 17.56 23.8921 17.711 24.0293 17.8272C24.1666 17.9433 24.3327 18.0203 24.51 18.05C25.243 18.1853 25.8994 18.5886 26.3513 19.1813C26.8032 19.774 27.0183 20.5138 26.9547 21.2564C26.891 21.9991 26.5532 22.6914 26.007 23.1986C25.4608 23.7058 24.7453 23.9915 24 24Z" fill="#096601"/>
</svg>
