<svg width="38" height="38" viewBox="0 0 38 38" fill="none" xmlns="http://www.w3.org/2000/svg">
<path opacity="0.1" d="M0 3C0 1.34315 1.34315 0 3 0H35C36.6569 0 38 1.34315 38 3V35C38 36.6569 36.6569 38 35 38H3C1.34315 38 0 36.6569 0 35V3Z" fill="#71CC16"/>
<path d="M11 21.46C11 21.1948 10.8946 20.9404 10.7071 20.7529C10.5196 20.5654 10.2652 20.46 10 20.46C9.73478 20.46 9.48043 20.5654 9.29289 20.7529C9.10536 20.9404 9 21.1948 9 21.46V22.46C9 22.7252 9.10536 22.9796 9.29289 23.1671C9.48043 23.3546 9.73478 23.46 10 23.46H11C11.2652 23.46 11.5196 23.3546 11.7071 23.1671C11.8946 22.9796 12 22.7252 12 22.46C12 22.1948 11.8946 21.9404 11.7071 21.7529C11.5196 21.5654 11.2652 21.46 11 21.46ZM15.18 11H17.28C17.5452 11 17.7996 10.8946 17.9871 10.7071C18.1746 10.5196 18.28 10.2652 18.28 10C18.28 9.73478 18.1746 9.48043 17.9871 9.29289C17.7996 9.10536 17.5452 9 17.28 9H15.18C14.9148 9 14.6604 9.10536 14.4729 9.29289C14.2854 9.48043 14.18 9.73478 14.18 10C14.18 10.2652 14.2854 10.5196 14.4729 10.7071C14.6604 10.8946 14.9148 11 15.18 11ZM21.46 11C21.46 11.2652 21.5654 11.5196 21.7529 11.7071C21.9404 11.8946 22.1948 12 22.46 12C22.7252 12 22.9796 11.8946 23.1671 11.7071C23.3546 11.5196 23.46 11.2652 23.46 11V10C23.46 9.73478 23.3546 9.48043 23.1671 9.29289C22.9796 9.10536 22.7252 9 22.46 9H21.46C21.1948 9 20.9404 9.10536 20.7529 9.29289C20.5654 9.48043 20.46 9.73478 20.46 10C20.46 10.2652 20.5654 10.5196 20.7529 10.7071C20.9404 10.8946 21.1948 11 21.46 11ZM11 9H10C9.73478 9 9.48043 9.10536 9.29289 9.29289C9.10536 9.48043 9 9.73478 9 10V11C9 11.2652 9.10536 11.5196 9.29289 11.7071C9.48043 11.8946 9.73478 12 10 12C10.2652 12 10.5196 11.8946 10.7071 11.7071C10.8946 11.5196 11 11.2652 11 11C11.2652 11 11.5196 10.8946 11.7071 10.7071C11.8946 10.5196 12 10.2652 12 10C12 9.73478 11.8946 9.48043 11.7071 9.29289C11.5196 9.10536 11.2652 9 11 9ZM10 18.28C10.2652 18.28 10.5196 18.1746 10.7071 17.9871C10.8946 17.7996 11 17.5452 11 17.28V15.18C11 14.9148 10.8946 14.6604 10.7071 14.4729C10.5196 14.2854 10.2652 14.18 10 14.18C9.73478 14.18 9.48043 14.2854 9.29289 14.4729C9.10536 14.6604 9 14.9148 9 15.18V17.28C9 17.5452 9.10536 17.7996 9.29289 17.9871C9.48043 18.1746 9.73478 18.28 10 18.28ZM22.82 27H20.72C20.4548 27 20.2004 27.1054 20.0129 27.2929C19.8254 27.4804 19.72 27.7348 19.72 28C19.72 28.2652 19.8254 28.5196 20.0129 28.7071C20.2004 28.8946 20.4548 29 20.72 29H22.82C23.0852 29 23.3396 28.8946 23.5271 28.7071C23.7146 28.5196 23.82 28.2652 23.82 28C23.82 27.7348 23.7146 27.4804 23.5271 27.2929C23.3396 27.1054 23.0852 27 22.82 27ZM28 14.54H27C26.7348 14.54 26.4804 14.6454 26.2929 14.8329C26.1054 15.0204 26 15.2748 26 15.54C26 15.8052 26.1054 16.0596 26.2929 16.2471C26.4804 16.4346 26.7348 16.54 27 16.54C27 16.8052 27.1054 17.0596 27.2929 17.2471C27.4804 17.4346 27.7348 17.54 28 17.54C28.2652 17.54 28.5196 17.4346 28.7071 17.2471C28.8946 17.0596 29 16.8052 29 16.54V15.54C29 15.2748 28.8946 15.0204 28.7071 14.8329C28.5196 14.6454 28.2652 14.54 28 14.54ZM28 19.72C27.7348 19.72 27.4804 19.8254 27.2929 20.0129C27.1054 20.2004 27 20.4548 27 20.72V22.82C27 23.0852 27.1054 23.3396 27.2929 23.5271C27.4804 23.7146 27.7348 23.82 28 23.82C28.2652 23.82 28.5196 23.7146 28.7071 23.5271C28.8946 23.3396 29 23.0852 29 22.82V20.72C29 20.4548 28.8946 20.2004 28.7071 20.0129C28.5196 19.8254 28.2652 19.72 28 19.72ZM23.46 14.54C23.46 14.2748 23.3546 14.0204 23.1671 13.8329C22.9796 13.6454 22.7252 13.54 22.46 13.54C22.1948 13.54 21.9404 13.6454 21.7529 13.8329C21.5654 14.0204 21.46 14.2748 21.46 14.54H15.54C15.2748 14.54 15.0204 14.6454 14.8329 14.8329C14.6454 15.0204 14.54 15.2748 14.54 15.54V21.46C14.2748 21.46 14.0204 21.5654 13.8329 21.7529C13.6454 21.9404 13.54 22.1948 13.54 22.46C13.54 22.7252 13.6454 22.9796 13.8329 23.1671C14.0204 23.3546 14.2748 23.46 14.54 23.46C14.54 23.7252 14.6454 23.9796 14.8329 24.1671C15.0204 24.3546 15.2748 24.46 15.54 24.46C15.8052 24.46 16.0596 24.3546 16.2471 24.1671C16.4346 23.9796 16.54 23.7252 16.54 23.46H22.46C22.5913 23.46 22.7214 23.4341 22.8427 23.3839C22.964 23.3336 23.0742 23.26 23.1671 23.1671C23.26 23.0742 23.3336 22.964 23.3839 22.8427C23.4341 22.7214 23.46 22.5913 23.46 22.46V16.54C23.7252 16.54 23.9796 16.4346 24.1671 16.2471C24.3546 16.0596 24.46 15.8052 24.46 15.54C24.46 15.2748 24.3546 15.0204 24.1671 14.8329C23.9796 14.6454 23.7252 14.54 23.46 14.54ZM21.46 21.46H16.54V16.54H21.46V21.46ZM28 26C27.7348 26 27.4804 26.1054 27.2929 26.2929C27.1054 26.4804 27 26.7348 27 27C26.7348 27 26.4804 27.1054 26.2929 27.2929C26.1054 27.4804 26 27.7348 26 28C26 28.2652 26.1054 28.5196 26.2929 28.7071C26.4804 28.8946 26.7348 29 27 29H28C28.2652 29 28.5196 28.8946 28.7071 28.7071C28.8946 28.5196 29 28.2652 29 28V27C29 26.7348 28.8946 26.4804 28.7071 26.2929C28.5196 26.1054 28.2652 26 28 26ZM16.54 27C16.54 26.7348 16.4346 26.4804 16.2471 26.2929C16.0596 26.1054 15.8052 26 15.54 26C15.2748 26 15.0204 26.1054 14.8329 26.2929C14.6454 26.4804 14.54 26.7348 14.54 27V28C14.54 28.2652 14.6454 28.5196 14.8329 28.7071C15.0204 28.8946 15.2748 29 15.54 29H16.54C16.8052 29 17.0596 28.8946 17.2471 28.7071C17.4346 28.5196 17.54 28.2652 17.54 28C17.54 27.7348 17.4346 27.4804 17.2471 27.2929C17.0596 27.1054 16.8052 27 16.54 27Z" fill="#096601"/>
</svg>
