<svg width="141" height="174" viewBox="0 0 141 174" fill="none" xmlns="http://www.w3.org/2000/svg">
<g clip-path="url(#clip0_0:1)">
<path d="M31.7826 95.1918C19.0833 101.641 8.48557 114.79 3.6857 128.051C-1.64221 142.768 -2.59268 162.717 10.4288 173.83C10.9726 174.292 11.6855 173.724 11.3898 173.08C7.94169 165.578 3.8758 159.378 3.18935 150.887C2.5557 143.002 4.61505 134.846 7.21828 127.471C9.52581 120.937 13.3594 115.2 18.0431 110.17C22.6053 105.273 28.5458 101.652 32.8387 96.5742C33.4882 95.8086 32.6909 94.7293 31.7826 95.1918Z" fill="#096601"/>
<path d="M48.511 83.1808C46.9955 82.798 45.2107 83.1329 43.7164 83.2074C40.733 83.3563 37.7548 83.5583 34.7767 83.755C34.1166 83.7976 26.7241 83.755 27.1254 85.2757C27.3313 86.052 28.6462 86.2593 30.1458 86.2434C30.0824 86.9346 30.0613 87.6417 30.0983 88.3436C29.19 87.2323 28.1709 86.2806 27.0356 85.834C26.4495 85.6 26.138 86.2912 26.4759 86.6847C31.186 92.1452 35.0882 98.6106 38.3409 105.05C38.6472 105.65 39.7086 105.709 39.9937 105.05C43.0352 98.0524 47.7453 91.7943 49.942 84.4409C50.2482 83.4094 49.3083 82.9309 48.511 83.1808ZM34.2064 94.4475C33.8526 93.9051 33.4935 93.3628 33.1345 92.8151C32.6856 92.1346 32.1893 91.3211 31.6454 90.4916C31.8355 90.3853 31.9834 90.2151 32.0362 89.9653C32.2843 88.7317 32.2791 87.3865 32.1576 86.1211C32.749 86.0626 33.3035 85.9935 33.7628 85.9403C33.6414 86.7006 33.5305 87.4663 33.3879 88.2213C33.1767 89.3591 32.8282 90.5554 33.0658 91.7145C33.0975 91.8794 33.351 91.9591 33.4619 91.8209C34.2011 90.901 34.3595 89.6835 34.5285 88.5403C34.6658 87.6364 34.782 86.7325 34.7925 85.8286C35.2097 85.8074 35.6268 85.7861 36.044 85.7648C35.8908 87.3972 35.4262 89.0295 35.0724 90.6033C34.8084 91.7837 34.2803 93.1501 34.2064 94.4475ZM45.6701 85.6691C45.5276 85.9775 45.3955 86.2806 45.2847 86.5996C44.9309 87.6205 44.6721 88.6732 44.3659 89.7047C44.0068 90.9329 43.7217 92.1558 43.4524 93.3841C41.9844 96.3456 40.4742 99.3657 39.0908 102.689C37.9132 100.365 36.6407 98.2331 35.3153 96.1542C36.5034 94.6282 36.5826 92.1824 36.9522 90.3321C37.2743 88.7423 37.306 87.2376 37.0789 85.6957C38.9165 85.5947 40.7594 85.5043 42.5969 85.4139C42.6075 85.4299 42.6128 85.4458 42.6286 85.4618C43.1567 85.9563 40.9547 91.4806 40.7435 92.1612C40.4531 93.1023 40.0201 94.2135 39.6769 95.3513C39.9092 94.0221 39.9726 92.6078 40.1204 91.5657C40.3739 89.7526 40.432 88.1787 39.4815 86.6102C39.2333 86.2008 38.6683 86.5571 38.8531 86.9824C39.0644 87.4556 38.8056 88.5775 38.7634 89.0826C38.6525 90.3747 38.3409 91.6933 38.098 92.9693C37.7865 94.5857 36.9152 96.755 37.7126 98.3235C37.8446 98.5841 38.2248 98.616 38.4201 98.4139C38.8162 98.0098 39.096 97.4622 39.3073 96.8507C39.1436 97.7068 39.0802 98.5468 39.2439 99.2965C39.3178 99.6368 39.8089 99.7751 40.0412 99.5092C41.8577 97.409 42.3699 93.3256 43.0458 90.683C43.352 89.4761 44.2339 86.7857 43.5052 85.3714C43.5738 85.3661 43.6477 85.3661 43.7164 85.3608C44.3659 85.3342 45.0787 85.3554 45.7916 85.3608C45.8813 85.5309 46.0873 85.6372 46.2985 85.5149C45.7705 85.8286 45.9341 85.0949 45.6701 85.6691ZM46.779 86.2008C46.7843 85.8818 46.7579 85.5947 46.6787 85.3554C46.8265 85.3501 46.9744 85.3342 47.1222 85.3235C47.0061 85.616 46.8952 85.9137 46.779 86.2008Z" fill="#096601"/>
</g>
<path d="M140.993 60.2568C139.484 50.087 138.676 39.8258 137.081 29.6674C136.305 24.7238 135.654 19.7459 134.627 14.8451C134.193 12.7729 133.674 10.7235 132.869 8.76264C132.132 6.97014 131.582 5.24045 131.196 3.35091C131.176 3.24816 131.048 3.21962 130.985 3.30239C130.169 4.3756 130.88 5.94831 131.271 7.08432C132.01 9.22503 132.846 11.263 133.382 13.4722C134.601 18.4758 135.163 23.622 135.996 28.6941C137.626 38.6156 138.165 48.6969 139.806 58.6127C139.695 58.6584 139.606 58.7668 139.629 58.9181C139.849 60.4794 139.886 61.9265 138.745 63.1539C137.737 64.2356 136.265 64.855 134.898 65.3345C131.63 66.4877 128.046 66.8359 124.63 67.2869C119.981 67.9005 115.324 68.4172 110.669 68.9937C108.033 69.3191 105.401 69.673 102.773 70.0726C101.5 70.2667 100.23 70.4808 98.9633 70.7092C97.973 70.889 96.8287 70.966 95.9412 71.4684C96.0296 71.2115 95.8527 70.8833 95.4846 70.8975C92.0058 71.0288 90.6446 65.8968 89.9283 63.3422C88.881 59.6088 88.2902 55.7384 87.845 51.8766C87.865 51.8281 87.8821 51.7795 87.9021 51.7339C87.982 51.5426 87.9078 51.3742 87.7766 51.2658C87.671 50.3124 87.5682 49.3591 87.4741 48.4086C87.3285 46.9501 87.2115 45.4859 87.1002 44.0245C87.1516 43.8675 87.203 43.7076 87.2515 43.5506C87.3085 43.368 87.1773 43.2424 87.0374 43.231C86.8776 41.1274 86.7178 39.0266 86.4867 36.9316C86.3211 35.4302 85.7818 33.906 85.3994 32.4503C85.0284 31.0375 84.6574 29.6217 84.295 28.206C84.3207 28.1175 84.3521 28.029 84.3777 27.9406C84.4291 27.7522 84.295 27.6066 84.1437 27.5981C83.9754 26.9387 83.807 26.2822 83.6443 25.6229C83.4702 24.9122 83.3019 24.2015 83.1392 23.4879C83.1792 23.2567 83.222 23.0283 83.2505 22.7971C83.2762 22.6059 83.0764 22.4974 82.9223 22.5346C82.3145 19.7716 81.8122 16.9773 81.5753 14.1629C81.4127 12.2363 80.9989 8.23174 83.3789 7.39829C98.7064 5.09488 114.031 2.91421 129.41 0.981857C129.538 1.98371 129.558 2.99984 129.755 3.98171C129.804 4.23289 130.129 4.25287 130.232 4.03023C130.751 2.88852 130.46 1.58411 130.269 0.385312C130.229 0.125572 129.986 -0.0228508 129.735 0.0028378C114.068 1.70114 98.3811 3.89894 82.8681 6.71897C82.8453 6.72182 82.831 6.73324 82.811 6.7418C81.9264 6.97871 81.3727 7.64946 81.0388 8.52002C78.9585 10.9176 77.1092 13.8747 76.0077 16.8203C75.9791 16.8973 76.0191 16.983 76.0819 17.0286C76.4586 18.2674 76.7953 19.5204 77.0978 20.7849C77.0693 20.9818 77.0407 21.1788 77.0265 21.3729C77.0179 21.5013 77.1606 21.6155 77.2776 21.5669C78.2108 25.6486 78.8129 29.8215 79.2809 33.9631C79.9401 39.8058 80.0714 45.6771 81.5154 51.4085C81.5468 51.5369 81.7237 51.5055 81.7152 51.3742C81.504 48.3487 81.2643 45.3289 80.996 42.309C81.0331 42.3005 81.0702 42.2805 81.0959 42.2377C82.8053 39.6717 84.2721 36.6347 84.6488 33.5235C85.0655 35.2104 85.4137 36.9087 85.5449 38.6327C85.7104 40.7706 85.8674 42.9113 86.0443 45.0463C84.6859 48.0461 83.3504 51.1231 82.7996 54.3627C82.7625 54.5853 83.0793 54.6338 83.1649 54.4512C84.3349 51.9765 85.3138 49.3848 86.1984 46.7731C86.344 48.3972 86.5009 50.0213 86.6893 51.6454C86.7035 51.7653 86.7178 51.8823 86.7321 52.0022C85.1597 54.591 84.1894 57.725 83.6301 60.7192C83.2077 59.1322 82.8139 57.5366 82.4229 55.9382C82.4058 55.8726 82.3031 55.8869 82.3145 55.9554C82.7026 57.9191 83.0422 59.8886 83.4331 61.8495C83.4331 61.8523 83.4331 61.8552 83.4303 61.858C83.4246 61.8923 83.4417 61.9208 83.4531 61.9494C83.9868 64.6096 84.6146 67.2441 85.6049 69.7929C86.4981 72.0906 88.9209 77.0086 92.1057 76.726C92.0971 76.8858 92.1086 77.0143 92.2056 77C98.2384 76.0096 104.28 75.0791 110.321 74.1429C110.401 74.1771 110.498 74.1685 110.578 74.1143C110.584 74.1086 110.589 74.1029 110.595 74.1C118.64 72.8499 126.679 71.5854 134.692 70.1526C134.747 70.1611 134.798 70.1554 134.846 70.1269C134.864 70.124 134.881 70.1212 134.895 70.1183L135.038 69.9157C135.3 69.6017 135.531 69.2449 135.74 68.8881L135.742 68.8681C135.939 68.5827 136.125 68.1945 136.316 67.8577C136.835 66.9444 137.466 66.1138 138.06 65.2461C138.131 65.1404 138.125 65.032 138.074 64.9435C139.541 63.9445 140.58 62.4489 140.611 60.7648C140.836 60.7249 141.036 60.545 140.993 60.2568ZM77.8341 20.8562C78.5047 19.7573 78.85 18.2959 79.2267 17.1628C79.4864 16.375 79.7832 15.5986 80.0372 14.808C80.0943 14.631 80.3397 13.7947 80.177 13.9717C80.2084 13.9375 80.2084 13.8775 80.1913 13.8347C79.8032 12.9756 78.8786 15.3104 78.8472 15.396C78.382 16.6661 77.7656 18.0876 77.3775 19.4947C77.0693 18.6385 76.7297 17.7879 76.3473 16.9459C78.1166 15.0335 79.3237 12.576 80.6422 10.2611C80.4795 11.654 80.5851 13.1325 80.645 14.0516C80.8705 17.4083 81.524 20.7478 82.2859 24.0473C81.524 25.9825 80.5309 27.8721 80.1799 29.91C80.1428 30.1212 80.4595 30.2411 80.5708 30.0584C81.4241 28.6827 82.1432 27.1471 82.6398 25.5601C82.8767 26.5477 83.1192 27.5295 83.3589 28.5086C82.7111 29.5076 82.2203 30.6179 81.7152 31.6882C81.1987 32.7843 80.685 33.906 80.3111 35.0649C80.2683 34.6453 80.2284 34.2257 80.1856 33.8061C79.7147 29.3848 79.1525 25.0406 77.8341 20.8562ZM80.939 41.644C80.7792 39.8458 80.6051 38.0447 80.4253 36.2465C80.4281 36.2437 80.431 36.2408 80.4338 36.238C81.23 35.1134 81.8265 33.8175 82.4001 32.5674C82.8167 31.6568 83.2847 30.7549 83.69 29.8301C83.8812 30.5637 84.0781 31.3001 84.2721 32.0365C83.9582 35.533 82.0662 38.4101 80.939 41.644ZM85.7875 67.7065C85.0798 65.7627 84.4776 63.7932 83.9297 61.8066C85.2196 59.3976 86.0643 56.7146 87.0003 54.1086C87.163 55.3588 87.3485 56.609 87.5625 57.8563C87.4255 57.745 87.1773 57.7792 87.1573 58.0076C86.9033 60.9218 85.8588 63.6448 85.3965 66.5076C85.3651 66.7017 85.6648 66.8273 85.7647 66.6475C87.1459 64.1614 87.5026 61.1045 87.6424 58.3016C87.9849 60.2168 88.4072 62.1178 88.9552 63.9759C88.1104 66.1651 87.4484 68.5285 87.3257 70.8804C87.3171 71.0659 87.5854 71.1459 87.651 70.9575C88.3445 68.9738 88.6584 66.8644 89.2177 64.835C89.3575 65.2746 89.5002 65.717 89.6572 66.1509C90.5276 68.5513 92.4139 72.553 95.6272 71.7453C95.7186 71.7224 95.7842 71.6796 95.8356 71.6311C95.827 71.7167 95.8698 71.8052 95.9811 71.8138C97.0028 71.9108 98.0729 71.5483 99.0746 71.3685C100.342 71.143 101.614 70.9461 102.89 70.7548C105.835 70.3181 108.792 69.9528 111.745 69.6045C114.896 69.2335 118.043 68.8653 121.194 68.4942C121.174 68.5028 121.151 68.5114 121.14 68.5342C121.094 68.6141 120.832 68.557 120.717 68.754C120.495 69.1307 120.281 69.5132 120.075 69.8985C119.821 70.3752 119.573 70.8519 119.316 71.3257C119.251 71.4484 119.176 71.5854 119.108 71.7281C118.557 71.8195 118.004 71.908 117.453 71.9993C117.473 71.9508 117.49 71.9022 117.507 71.8566C117.772 71.1487 118.026 70.3952 118.554 69.83C119.014 69.5046 118.412 68.7682 117.995 69.1564C117.698 69.4304 117.467 69.7387 117.276 70.0669C117.213 70.1183 117.176 70.1611 117.216 70.1554C117.219 70.1554 117.227 70.1554 117.23 70.1554C117.07 70.4408 116.933 70.7406 116.811 71.0602C116.697 71.3542 116.494 71.7738 116.368 72.1763C114.676 72.4531 112.981 72.73 111.286 73.004C111.437 72.5216 111.526 71.9936 111.725 71.5769C111.885 71.2429 112.085 70.8519 111.702 70.5807C111.349 70.3267 111.089 70.595 110.898 70.8804C110.849 70.9546 110.832 71.0574 110.861 71.1459C110.684 71.4541 110.575 71.8052 110.484 72.1477C110.398 72.4731 110.29 72.8242 110.224 73.1753C104.956 74.0287 99.6881 74.8821 94.423 75.7555C94.8111 75.2931 95.0822 74.6966 95.3162 74.1685C95.5559 73.6262 95.9012 72.9469 95.7985 72.3332C95.7271 71.9108 95.1963 71.8166 94.9452 72.1334C94.8196 72.2933 94.6456 72.4217 94.5114 72.573C94.4287 72.6643 94.5599 72.8242 94.6684 72.7614C94.7226 72.73 94.7768 72.6986 94.831 72.6701C94.754 73.0754 94.4743 73.5977 94.3288 73.9345C94.0748 74.5196 93.7295 75.1989 93.7381 75.8497C93.7381 75.8583 93.7438 75.864 93.7438 75.8697C93.6068 75.8925 93.4698 75.9154 93.3328 75.9382C93.2815 75.8526 93.1987 75.7869 93.0845 75.7727C88.724 75.2703 87.1687 71.5084 85.7875 67.7065ZM135.751 67.107C135.36 67.7179 134.963 68.3801 134.698 69.0736C133.588 69.2706 132.475 69.4675 131.362 69.6616C131.371 69.6416 131.379 69.6188 131.388 69.5988C131.593 69.1108 131.816 68.6312 131.947 68.1146C131.993 67.9434 131.944 67.7464 131.781 67.6551C131.719 67.5438 131.639 67.5438 131.556 67.6008C131.41 67.6123 131.279 67.7065 131.228 67.8435C131.048 68.3058 130.831 68.7597 130.637 69.2164C130.563 69.3905 130.46 69.6103 130.38 69.8357C129.133 70.0527 127.883 70.2639 126.633 70.4751C126.707 70.2039 126.765 69.9299 126.825 69.6845C126.884 69.439 127.315 68.5998 127.13 68.3744C127.11 68.3487 127.087 68.323 127.067 68.2973C126.882 68.0718 126.582 68.126 126.408 68.3201C126.074 68.6912 125.926 69.2592 125.82 69.7387C125.754 70.027 125.692 70.3352 125.674 70.6378C123.888 70.9404 122.102 71.2372 120.312 71.534C120.506 71.1687 120.666 70.7919 120.803 70.5236C121.017 70.1012 121.217 69.6788 121.4 69.2421C121.497 69.008 121.328 68.7454 121.365 68.6598C121.402 68.5742 121.328 68.5028 121.251 68.4885C122.952 68.2887 124.653 68.0889 126.354 67.8806C129.901 67.4467 133.562 67.1128 136.853 65.6086C136.447 66.0709 136.091 66.5761 135.751 67.107Z" fill="#096601"/>
<path d="M123.684 6.27372C121.215 5.12344 118.016 5.73997 115.462 6.18523C113.284 6.56485 111.156 6.99871 108.944 7.13857C104.526 7.41543 100.103 7.74082 95.7367 8.4915C93.6506 8.84828 91.5474 9.31353 89.584 10.1241C88.4054 10.6094 87.007 11.3686 86.6104 12.6759C86.4477 13.2096 86.5533 13.7519 86.7787 14.2457C87.3438 18.1846 88.0458 22.1093 88.7107 26.0282C88.7564 26.2994 89.0047 26.4535 89.2644 26.425C95.8366 25.7257 102.44 25.3774 109.004 24.6011C115.627 23.819 121.917 22.4404 128.101 19.9229C128.289 19.8458 128.386 19.6289 128.358 19.4348C127.97 16.7718 127.647 14.1002 127.005 11.4828C126.474 9.31068 125.83 7.27272 123.684 6.27372ZM108.85 23.6563C102.457 24.4869 96.0078 24.8009 89.5925 25.426C88.9419 21.4157 88.3255 17.394 87.5521 13.4037C87.6634 9.19365 105.451 8.47722 107.979 8.31168C109.609 8.20607 111.213 8.10617 112.825 7.81503C115.724 7.28984 118.658 6.45925 121.629 6.7618C124.668 7.07006 125.436 9.3906 126.069 11.9937C126.651 14.3799 126.977 16.8146 127.402 19.2293C121.609 21.7611 115.079 22.8485 108.85 23.6563Z" fill="#096601"/>
<path d="M124.246 8.10046C122.81 7.61809 121.058 7.81218 119.565 7.87212C117.628 7.94918 115.699 8.12044 113.775 8.35449C112.514 8.50862 111.267 8.71128 110.025 8.93677C110.082 8.65705 109.714 8.45154 109.532 8.70842C109.446 8.8283 109.369 8.95104 109.289 9.07377C107.106 9.48764 104.934 9.9586 102.737 10.3525C100.208 10.8063 97.7314 11.6284 95.2857 12.399C93.5963 12.9299 91.8783 13.4208 90.2717 14.1658C89.9777 14.3028 90.1147 14.7966 90.4429 14.7224C94.5552 13.7833 98.4791 12.1307 102.637 11.3115C104.632 10.9205 106.618 10.518 108.616 10.1527C107.591 11.9252 106.784 13.8633 105.873 15.67C104.523 18.3502 103.008 20.9562 101.687 23.6477C101.467 24.0987 102.183 24.4698 102.452 24.0588C103.915 21.8267 105.074 19.3435 106.267 16.9602C107.406 14.6853 108.761 12.3676 109.672 9.96145C110.762 9.77022 111.855 9.5904 112.953 9.43912C114.888 9.17367 116.832 8.98814 118.784 8.87968C120.539 8.77978 122.456 9.09375 124.18 8.78549C124.517 8.72269 124.591 8.21463 124.246 8.10046Z" fill="#096601"/>
<path d="M119.497 9.59038C119.548 10.1213 119.006 11.1346 118.812 11.6341C118.37 12.7758 117.887 13.8832 117.331 14.9764C116.749 16.1181 116.098 17.217 115.465 18.3302C115.034 19.0894 114.252 20.0228 114.235 20.9276C114.232 21.1103 114.414 21.2958 114.606 21.1931C115.416 20.7478 115.841 19.6917 116.304 18.9267C117.009 17.7593 117.651 16.5463 118.273 15.3332C118.866 14.1687 119.477 12.9442 119.802 11.674C119.902 11.2744 119.971 10.8777 119.999 10.4695C120.025 10.0813 119.805 9.9015 119.757 9.54472C119.734 9.37917 119.483 9.42484 119.497 9.59038Z" fill="#096601"/>
<path d="M100.271 72.2962C100.297 72.3161 100.288 72.2933 100.226 72.2505C100.234 72.2591 100.24 72.2648 100.246 72.2705C100.257 72.279 100.263 72.2876 100.271 72.2962Z" fill="#096601"/>
<path d="M98.5048 74.9592C98.9756 74.825 99.3124 74.2798 99.6092 73.9145C99.8945 73.5663 100.206 73.1324 100.36 72.7043C100.408 72.5673 100.377 72.3989 100.271 72.2933C100.266 72.2904 100.257 72.279 100.246 72.2704C100.237 72.2619 100.231 72.2533 100.22 72.2447C100.223 72.2476 100.223 72.2476 100.226 72.2476C100.226 72.2447 100.223 72.2447 100.223 72.2447C100.2 72.2191 100.171 72.1962 100.146 72.1734C100.074 72.1106 99.9716 72.1134 99.886 72.1163C99.6149 72.1277 99.418 72.4246 99.2182 72.5616C99.1069 72.6358 99.2268 72.8185 99.3438 72.7585C99.3923 72.7328 99.4379 72.7214 99.4865 72.7071C99.3152 72.9869 99.0812 73.2409 98.8986 73.5035C98.6417 73.8717 98.2337 74.3027 98.2536 74.7765C98.2565 74.8907 98.3992 74.9906 98.5048 74.9592Z" fill="#096601"/>
<path d="M101.242 74.551C101.886 74.3141 102.389 73.4493 102.797 72.9298C103.094 72.553 103.579 71.9337 103.445 71.4085C103.405 71.26 103.31 71.1659 103.156 71.1402C102.994 71.1116 102.725 71.1773 102.56 71.2087C102.403 71.2372 102.446 71.4627 102.6 71.4484C102.666 71.4399 102.728 71.4427 102.794 71.4427C102.788 71.477 102.78 71.5084 102.757 71.5455C102.588 71.8223 102.357 72.0564 102.155 72.3076C101.721 72.8499 100.876 73.5292 100.848 74.2713C100.845 74.4911 101.039 74.6253 101.242 74.551Z" fill="#096601"/>
<path d="M90.0263 32.3191C90.4458 33.5179 90.9081 34.8108 90.9053 36.0981C90.9053 36.3236 91.0794 36.552 91.3305 36.4977C94.3384 35.8584 97.4061 35.4702 100.434 34.9364C100.574 34.9107 100.685 34.7966 100.699 34.6539C100.736 34.2914 100.745 33.9203 100.739 33.5493C100.796 33.4722 100.796 33.358 100.736 33.2809C100.674 31.8681 100.323 30.4352 99.8147 29.1565C99.7576 29.0109 99.5864 28.9339 99.438 28.9567C97.76 29.2222 96.0791 29.4876 94.404 29.7616C92.9486 30.0014 91.2449 30.047 89.8694 30.5865C89.5869 30.695 89.6496 31.1402 89.9322 31.1945C89.6867 31.5627 89.8894 31.9309 90.0263 32.3191ZM94.5324 30.518C95.4713 30.3582 96.4102 30.1983 97.3491 30.0356C97.8 29.9557 98.2537 29.8786 98.7046 29.8016C99.4979 29.6646 99.4038 29.97 99.6207 30.7349C99.8404 31.5027 99.966 32.2962 100.06 33.0897C100.06 33.0954 100.06 33.0983 100.06 33.104C99.0271 32.967 97.9255 33.1839 96.9067 33.3123C95.7595 33.4551 94.5524 33.5778 93.4366 33.9289C93.4737 33.4893 93.4822 33.0497 93.4423 32.6073C93.3738 31.8766 93.0599 31.5398 92.5005 31.1431C92.3636 31.046 92.1638 31.243 92.2922 31.3657C92.6489 31.7025 92.7117 32.4646 92.7517 32.9213C92.7973 33.4922 92.7003 34.0859 92.6118 34.6453C92.5376 35.1163 93.2796 35.1933 93.3481 34.7224C93.3595 34.6453 93.3681 34.5711 93.3766 34.4969C94.4354 34.4912 95.4884 34.2628 96.5357 34.1287C97.6887 33.9802 98.9614 34.0459 100.103 33.7804C100.106 33.9631 100.106 34.1486 100.097 34.3342C100.094 34.4141 98.345 34.6339 98.1852 34.6596C96.0078 35.0164 93.8304 35.4388 91.6416 35.7214C91.613 34.7595 91.3362 33.8404 91.0394 32.9242C90.8653 32.3847 90.7398 31.5684 90.2546 31.2144C91.6558 31.203 93.1683 30.7492 94.5324 30.518Z" fill="#096601"/>
<path d="M92.9685 46.3907C93.0113 46.5933 93.2025 46.756 93.4194 46.7132C96.3274 46.1338 99.2297 45.6857 102.086 44.8722C102.238 44.8294 102.406 44.7152 102.403 44.5354C102.394 43.9674 102.343 43.4165 102.26 42.8799C102.38 42.8171 102.497 42.74 102.608 42.6401C102.731 42.5288 102.706 42.3262 102.546 42.2634C102.414 42.2092 102.272 42.1778 102.126 42.1578C101.818 40.7192 101.276 39.3634 100.574 37.9877C100.488 37.8221 100.311 37.7165 100.123 37.7508C97.4518 38.2274 94.9262 39.2635 92.275 39.8201C91.944 39.8886 91.8641 40.2169 91.9726 40.4509C91.9726 40.4652 91.9697 40.4795 91.9697 40.4937C92.2922 42.4575 92.5547 44.4412 92.9685 46.3907ZM101.093 41.193C101.21 41.5156 101.296 41.8438 101.367 42.172C100.408 42.3005 99.3467 42.7943 98.5704 43.0483C97.4318 43.4194 96.3959 43.8818 95.3657 44.4269C95.4427 43.7333 95.3971 43.0369 95.2886 42.3462C95.2315 41.978 95.1288 41.624 95.0089 41.2729C94.8691 40.8619 94.6922 40.9219 94.4724 40.6079C94.384 40.4823 94.1642 40.6193 94.2441 40.7506C94.2784 40.8077 94.3041 41.2615 94.3469 41.3786C94.4753 41.7211 94.5352 42.1007 94.598 42.4603C94.7122 43.1168 94.7293 43.7933 94.638 44.4526C94.618 44.5896 94.6722 44.6895 94.7578 44.7552C94.715 44.778 94.6722 44.8008 94.6294 44.8237C94.5181 44.8865 94.5609 45.0977 94.7007 45.0549C95.8223 44.7124 96.9695 44.4469 98.0882 44.0701C99.0242 43.7562 99.9716 43.485 100.928 43.2453C101.139 43.1939 101.341 43.1568 101.538 43.114C101.695 44.1529 101.353 44.3013 100.408 44.5554C98.2137 45.1491 95.9393 45.5658 93.682 45.8798C93.4508 44.113 93.1141 42.3576 92.8144 40.6022C95.2401 40.1455 97.5345 39.1522 99.9517 38.647C100.385 39.4776 100.776 40.3139 101.093 41.193Z" fill="#096601"/>
<path d="M93.993 52.6045C94.1642 53.6805 94.1899 54.9535 94.6322 55.9582C94.7407 56.2066 95.0831 56.1894 95.2087 55.9896C95.4398 55.9839 95.6738 55.9725 95.905 55.9554C96.0277 56.0125 96.1675 56.001 96.2788 55.9268C97.6686 55.7955 99.0584 55.5158 100.437 55.3703C101.675 55.239 103.191 55.6671 103.975 54.591C104.087 54.4398 104.055 54.2656 103.958 54.1201C103.716 53.749 103.513 53.3437 103.333 52.927C103.339 52.8299 103.302 52.7357 103.225 52.6701C102.88 51.7967 102.631 50.8662 102.374 50.0013C102.246 49.5703 102.166 48.7112 101.855 48.2117C101.901 47.9463 101.624 47.618 101.276 47.7265C98.8986 48.4686 96.3188 48.9082 94.1043 50.0898C94.0501 49.9414 93.8446 49.9757 93.8532 50.1412C93.856 50.2183 93.6819 50.3924 93.6705 50.5037C93.6534 50.6635 93.7133 50.8519 93.739 51.0118C93.8246 51.5427 93.9102 52.0736 93.993 52.6045ZM94.5438 51.1145C94.5181 50.9747 94.4952 50.8348 94.4696 50.6949C94.7178 50.5893 94.969 50.4894 95.2201 50.3952C95.0717 52.0279 95.2515 53.8204 95.631 55.4188C95.5083 55.453 95.3885 55.4901 95.2686 55.5272C95.2686 54.6167 94.9832 53.6463 94.8291 52.77C94.7378 52.2191 94.6408 51.6682 94.5438 51.1145ZM100.825 54.611C99.3837 54.7537 97.8627 54.9079 96.413 55.2275C96.4044 55.1305 96.393 55.0334 96.3844 54.9364C98.442 54.1572 100.577 53.9089 102.671 53.338C102.677 53.3523 102.683 53.3694 102.688 53.3837C102.8 53.6434 102.931 53.8917 103.065 54.1401C103.119 54.24 103.148 54.3027 103.168 54.3427C102.72 54.6795 101.359 54.5596 100.825 54.611ZM102.389 52.6416C100.331 52.8185 98.1481 53.435 96.3359 54.4112C96.1847 53.0098 95.9878 51.614 95.8993 50.1954C95.8993 50.184 95.8936 50.1755 95.8907 50.164C97.6173 49.5875 99.398 49.1993 101.133 48.637C101.187 49.0708 101.396 49.5618 101.476 49.8444C101.735 50.7891 102.032 51.7253 102.389 52.6416Z" fill="#096601"/>
<path d="M101.972 66.9044C104.112 66.7075 106.233 66.2422 108.319 65.737C112.42 64.7409 116.481 63.3794 120.681 62.8542C121.152 62.7942 121.049 62.1206 120.618 62.1035C120.633 61.838 120.59 61.5498 120.573 61.3471C120.501 60.565 120.439 59.7801 120.376 58.9952C120.316 58.2559 120.499 56.4606 119.894 55.9097C119.785 55.8098 119.554 55.8212 119.451 55.9268L119.448 55.9297C119.377 56.001 119.311 56.1066 119.32 56.2151C119.226 57.0029 119.457 58.4043 119.526 59.3491C119.543 59.5632 119.534 59.9057 119.534 60.2939C116.15 60.6764 112.774 61.3871 109.415 61.9408C105.947 62.5117 102.412 62.9683 98.9927 63.7818C98.5732 63.8817 98.6731 64.4811 99.1012 64.4412C102.6 64.1043 106.09 63.3908 109.56 62.8114C112.882 62.2576 116.267 61.8323 119.557 61.1159C119.583 61.5184 119.637 61.9037 119.745 62.2062C115.973 62.72 112.303 63.8446 108.616 64.7551C106.644 65.2404 104.66 65.6828 102.651 65.9739C100.791 66.2422 98.9185 66.0053 97.0779 66.2479C96.7697 64.2242 96.3273 62.2177 95.6481 60.2853C95.6367 60.2539 95.6196 60.2339 95.6025 60.2111C96.0619 60.1711 96.5185 60.1055 96.9694 60.0256C96.9894 60.8419 97.0864 61.6268 97.2662 62.4374C97.4403 63.2167 97.5801 64.2642 98.2222 64.7951C98.3506 64.9007 98.5475 64.7951 98.5647 64.641C98.6446 63.8732 98.2051 63.054 98.0253 62.3119C97.8313 61.5098 97.6572 60.722 97.4089 59.9399C98.4248 59.7344 99.4294 59.4604 100.437 59.2093C102.449 58.7098 104.458 58.1988 106.478 57.7279C110.565 56.7774 114.606 56.3064 118.792 56.158C119.243 56.1409 119.209 55.4016 118.769 55.3702C114.791 55.1105 110.75 55.8754 106.886 56.7374C104.86 57.1884 102.857 57.7193 100.851 58.2474C98.8358 58.7783 96.7383 59.1693 94.8205 60.0027C94.7092 60.0513 94.7292 60.2539 94.8634 60.2511C94.9261 60.2511 94.9889 60.2425 95.0517 60.2396C94.9832 60.3338 94.9461 60.4537 94.9889 60.5907C95.6367 62.6658 95.9735 64.7694 96.3815 66.8958C96.4786 67.3982 97.2377 67.2726 97.1635 66.7645C97.1549 66.696 97.1406 66.6247 97.1292 66.5562C98.5647 67.2726 100.414 67.0471 101.972 66.9044Z" fill="#096601"/>
<path d="M132.607 51.8452C132.293 49.9814 132.256 47.6466 131.34 45.9625C131.323 45.894 131.269 45.8512 131.206 45.8369C131.203 45.8369 131.2 45.8341 131.2 45.8341C131.183 45.8312 131.166 45.8312 131.149 45.8312C131.137 45.8312 131.126 45.8312 131.117 45.8341C131.109 45.8369 131.1 45.8398 131.092 45.8426C131.075 45.8484 131.058 45.8541 131.04 45.8655L131.038 45.8683C130.98 45.9026 130.943 45.9597 130.949 46.0339C130.627 47.9206 131.349 50.1441 131.651 52.0079C132.011 54.2 132.393 56.3864 132.778 58.5756C131.117 58.7526 129.485 59.195 127.995 59.9514C127.664 57.7992 127.228 55.6642 126.774 53.5349C126.249 51.0688 125.858 48.5457 125.21 46.1109C125.176 45.9854 125.093 45.9169 124.999 45.894C125.478 45.7485 125.946 45.5972 126.355 45.5315C127.333 45.3688 128.335 45.2803 129.325 45.2918C129.905 45.3003 130.572 45.6286 131.103 45.3717C131.22 45.3146 131.28 45.169 131.223 45.0492C130.647 43.8818 127.556 44.5497 126.571 44.7123C125.767 44.8465 123.147 45.0663 122.862 46.0567C122.842 46.1309 122.879 46.1966 122.956 46.208C123.475 46.2993 124.1 46.1595 124.722 45.9796C124.674 46.0339 124.642 46.1109 124.651 46.208C124.825 48.5399 125.404 50.8576 125.867 53.1496C126.366 55.63 126.857 58.1075 127.339 60.5907C127.382 60.8134 127.647 60.9932 127.864 60.8704C129.462 59.9571 131.149 59.646 132.89 59.2178C132.915 59.3634 132.941 59.5118 132.967 59.6574C132.981 59.7459 133.021 59.8086 133.067 59.8629C131.149 60.4594 129.217 60.9646 127.273 61.487C127.242 61.4756 127.211 61.4641 127.171 61.4613C126.315 61.3985 125.861 59.88 125.604 59.2349C124.968 57.628 124.554 55.924 124.149 54.2485C123.484 51.4998 123.315 48.4144 122.311 45.7713C122.245 45.6029 121.965 45.6486 121.96 45.8312C121.914 47.227 122.274 48.6769 122.522 50.0413C122.882 52.0136 123.284 53.9802 123.769 55.9268C124.066 57.1228 125.116 62.6458 127.191 62.1349C127.256 62.1178 127.305 62.0835 127.348 62.0436C129.882 61.8009 132.37 60.9475 134.767 60.1312C135.241 59.9713 134.91 59.2692 134.442 59.429C134.239 59.4975 134.037 59.5575 133.834 59.6231C133.837 59.5889 133.846 59.5575 133.84 59.5175C133.438 56.943 133.038 54.3912 132.607 51.8452Z" fill="#096601"/>
<path d="M104.56 30.8605C104.62 32.1192 104.814 33.3894 105.04 34.6282C105.08 34.8422 105.288 35.0078 105.508 34.965C108.912 34.3085 112.291 33.535 115.693 32.8642C116.189 32.7672 116.067 32.0165 115.564 32.0907C115.453 32.1078 115.342 32.1278 115.228 32.1478C115.185 31.8823 115.116 31.6112 115.031 31.34C115.176 31.2772 115.319 31.2087 115.453 31.1317C115.619 31.0375 115.584 30.8034 115.393 30.772C115.208 30.7406 115.017 30.7292 114.822 30.7292C114.657 30.2725 114.477 29.8244 114.343 29.4191C114.226 29.0623 113.878 27.2441 113.244 27.4125C113.133 27.4411 113.025 27.5438 113.059 27.6751C113.042 27.4867 113.025 27.6637 113.016 27.7408C112.999 27.8921 113.099 28.0747 113.139 28.2174C113.29 28.7312 113.473 29.2364 113.635 29.7473C113.744 30.0956 113.841 30.4495 113.938 30.8063C113.076 30.9461 112.194 31.2487 111.421 31.4342C110.114 31.751 108.801 32.0336 107.494 32.339C107.448 31.9737 107.329 31.5912 107.286 31.3315C107.177 30.7121 107.095 30.0813 106.955 29.4676C106.926 29.1993 106.701 29.1108 106.495 29.1536C106.287 29.1765 106.101 29.3363 106.161 29.5989C106.227 30.224 106.353 30.8491 106.45 31.4713C106.521 31.9223 106.501 32.81 106.898 33.1354C106.958 33.201 107.037 33.241 107.12 33.241C107.137 33.241 107.154 33.2381 107.172 33.2353C107.189 33.2324 107.203 33.2296 107.22 33.2239C107.3 33.1953 107.36 33.1325 107.397 33.0526C107.414 33.0269 107.434 33.0041 107.448 32.9755C108.827 32.7929 110.185 32.4532 111.541 32.1449C112.351 31.9594 113.296 31.8538 114.163 31.6312C114.223 31.8538 114.289 32.0764 114.354 32.2991C111.484 32.8185 108.664 33.6263 105.782 34.0973C105.676 33.4179 105.562 32.7386 105.471 32.0565C105.382 31.4057 104.971 29.8301 105.311 29.2707C105.548 28.8825 104.957 28.4743 104.743 28.8625C104.603 29.0338 104.538 29.2535 104.509 29.4905C104.5 29.5333 104.486 29.5704 104.478 29.6132C104.472 29.6446 104.48 29.6731 104.495 29.696C104.48 30.0956 104.546 30.5266 104.56 30.8605Z" fill="#096601"/>
<path d="M109.626 27.9891C110.616 27.8293 112.103 27.8892 112.913 27.247C113.03 27.1557 112.996 26.9587 112.856 26.9102C111.972 26.5962 110.79 27.0501 109.891 27.207C108.179 27.501 106.453 27.7437 104.777 28.2175C104.518 28.2917 104.578 28.6428 104.846 28.6285C106.455 28.54 108.039 28.246 109.626 27.9891Z" fill="#096601"/>
<path d="M107.968 43.2766C108.068 43.3023 108.168 43.2709 108.208 43.171C108.247 43.0683 108.262 42.957 108.262 42.8428C110.879 42.5859 113.39 41.9751 116.015 41.9037C116.081 42.1406 116.152 42.3775 116.229 42.6059C116.329 42.897 116.832 42.8142 116.829 42.506C116.829 42.309 116.817 42.1064 116.809 41.9066C116.911 41.9094 117.011 41.9037 117.114 41.9066C117.522 41.9209 117.596 41.3043 117.18 41.2701C117.04 41.2587 116.9 41.2587 116.757 41.253C116.717 40.8334 116.666 40.4109 116.598 39.9857C116.797 39.8715 116.737 39.5261 116.512 39.489C116.306 38.3502 116.03 37.217 115.77 36.1581C115.864 35.9383 115.781 35.65 115.479 35.6443C113.824 35.6215 112.143 35.8869 110.511 36.1381C109.592 36.2808 108.673 36.4349 107.757 36.5919C107.212 36.6861 106.761 36.9573 106.253 37.0771C106.164 37.0971 106.176 37.2056 106.247 37.2284C106.101 37.2627 105.982 37.3883 106.002 37.5909C106.121 38.8011 106.472 39.9742 106.832 41.1331C107.023 41.7496 107.232 43.0797 107.968 43.2766ZM106.407 37.2256C107.677 37.1057 108.998 37.06 110.294 36.8916C111.906 36.6832 113.555 36.4007 115.185 36.4035C115.273 37.4054 115.373 38.4672 115.527 39.5204C114.569 39.6117 113.61 39.8429 112.668 40.0056C111.526 40.2026 110.362 40.3367 109.246 40.6507C109.198 40.3995 109.135 40.1483 109.089 39.9057C108.95 39.1151 108.807 38.3245 108.667 37.5367C108.581 37.0486 107.834 37.1742 107.911 37.6623C108.033 38.4558 108.156 39.2492 108.279 40.0399C108.325 40.3282 108.345 40.5993 108.396 40.8962C108.259 40.9675 108.299 41.173 108.462 41.173C108.53 41.173 108.63 41.6925 108.804 41.8866C108.924 42.0208 109.135 42.0036 109.203 41.8381C109.289 41.6383 109.315 41.4385 109.312 41.2244C110.302 41.1702 111.275 40.9789 112.26 40.822C113.37 40.6421 114.543 40.5451 115.65 40.2739C115.707 40.5936 115.773 40.9104 115.844 41.2216C113.27 41.2387 110.696 41.8609 108.222 42.5031C108.111 42.0179 107.802 41.5041 107.665 41.1159C107.246 39.9257 106.972 38.6955 106.658 37.4739C106.621 37.3312 106.518 37.2512 106.407 37.2256Z" fill="#096601"/>
<path d="M107.614 47.618C108.921 47.5638 108.715 52.6216 109.246 53.4721C109.295 53.5492 109.44 53.5806 109.472 53.4636C109.831 52.0821 109.429 50.2639 109.132 48.8967C108.932 47.9719 108.556 47.2384 107.563 47.324C107.371 47.3411 107.428 47.6266 107.614 47.618Z" fill="#096601"/>
<path d="M112.816 53.7833C114.029 53.5492 115.216 53.1867 116.406 52.8556C117.168 52.6444 118.447 52.5645 118.989 51.9394C119.043 51.8766 119.026 51.7453 118.952 51.7053C118.94 51.6996 118.926 51.6968 118.915 51.6911C118.895 51.6112 118.878 51.5312 118.858 51.4513C118.838 51.3657 118.715 51.3857 118.724 51.4741C118.729 51.5227 118.732 51.5712 118.738 51.6197C118.715 51.6112 118.686 51.6083 118.661 51.6026C118.801 51.2915 118.698 51.0175 118.578 50.6921C118.321 49.9842 118.067 49.2821 117.853 48.5599C117.665 47.9206 117.494 47.2669 117.397 46.6076C117.348 46.2793 117.282 45.8969 117.422 45.9397C117.559 45.9797 117.639 45.7856 117.502 45.7285C117.454 45.7085 117.32 45.6685 117.277 45.6314C117.257 45.6143 117.228 45.6172 117.205 45.6086C117.262 45.503 117.245 45.366 117.1 45.306C115.89 44.7951 114.394 45.1776 113.147 45.4202C111.369 45.7656 109.606 46.2708 107.859 46.7417C107.497 46.8388 107.574 47.3554 107.956 47.3212C109.409 47.187 110.802 46.7846 112.217 46.4449C113.727 46.0824 115.373 46.1795 116.843 45.7941C116.306 46.4906 116.715 47.7093 116.906 48.4686C116.977 48.7483 117.068 49.2564 117.203 49.7901C116.349 49.7758 115.339 50.1897 114.597 50.3524C113.824 50.5237 112.936 50.7891 112.1 50.929C112.046 49.9357 111.127 48.6912 110.727 48.1375C110.485 47.8007 110.025 48.1575 110.151 48.5028C110.171 48.5571 110.105 48.5713 110.191 48.7283C110.254 48.8396 110.314 48.951 110.376 49.0651C110.548 49.3734 110.713 49.6845 110.867 50.0013C111.013 50.2982 111.15 50.6036 111.224 50.9261C111.232 50.9661 111.235 51.0089 111.241 51.0517C111.181 51.1088 111.187 51.2287 111.272 51.2572C111.287 51.3229 111.312 51.38 111.352 51.4342C111.341 51.437 111.332 51.437 111.321 51.4456C111.244 51.4998 111.295 51.6169 111.378 51.6283C111.472 51.6425 111.558 51.5883 111.641 51.594C111.809 51.6111 111.957 51.5255 112.037 51.3914C112.796 51.457 113.51 51.3286 114.352 51.163C115.211 50.9946 116.529 50.9404 117.417 50.5151C117.562 50.9432 117.745 51.3257 117.97 51.5598C116.86 51.6568 115.428 52.3447 114.637 52.573C113.804 52.8157 110.291 54.0972 109.78 52.9298C109.729 52.81 109.552 52.8727 109.566 52.9955C109.729 54.4426 111.912 53.9574 112.816 53.7833Z" fill="#096601"/>
<path d="M128.746 24.7181C128.555 24.7952 128.418 24.935 128.307 25.1006C128.278 25.0777 128.247 25.0606 128.204 25.0492C125.324 24.27 122.185 25.1634 119.557 26.4649C119.334 26.3479 119.038 26.4221 119.038 26.7418V26.7446C119.038 26.7503 118.986 26.756 118.975 26.7646C118.886 26.8131 118.915 26.9216 118.995 26.9273C118.946 28.7055 119.052 30.6579 119.486 32.4075C119.48 32.4104 119.471 32.4104 119.468 32.4132C119.274 32.476 119.329 32.8214 119.534 32.8157C119.551 32.8157 119.568 32.8128 119.588 32.8128C119.605 32.8699 119.617 32.927 119.634 32.9812C119.771 33.4408 120.382 33.338 120.365 32.8585C120.365 32.8243 120.359 32.79 120.359 32.7558C121.828 32.6073 123.275 32.2106 124.694 31.811C125.829 31.4913 127.057 31.1888 128.09 30.5922C128.112 30.7863 128.13 30.9804 128.161 31.1716C128.181 31.2887 128.326 31.3143 128.395 31.2259C128.669 30.8805 128.789 30.4866 128.837 30.0727C128.872 30.0442 128.909 30.0185 128.943 29.99C129.034 29.9072 128.977 29.7673 128.863 29.7588C128.883 29.2678 128.823 28.7569 128.797 28.2774C128.76 27.6009 128.726 26.9273 128.749 26.2508C128.766 25.7599 128.949 25.2975 128.912 24.8066C128.906 24.7267 128.812 24.6924 128.746 24.7181ZM128.067 25.4745C128.072 25.4745 128.075 25.4745 128.078 25.4745C127.927 26.0453 127.953 26.8303 127.955 27.2784C127.958 27.7179 127.964 28.2032 127.97 28.6513C126.948 28.7398 125.921 29.2535 124.956 29.5475C123.937 29.8587 122.901 30.204 121.866 30.4809C121.934 29.9357 121.777 29.382 121.68 28.834C121.54 28.0433 121.4 27.2555 121.261 26.4678C121.241 26.3479 121.178 26.1909 121.101 26.1395C123.367 25.4773 125.712 25.4745 128.067 25.4745ZM124.1 31.203C122.85 31.5655 121.572 31.8224 120.316 32.1678C120.165 30.3867 119.745 28.637 119.748 26.8246C119.748 26.7703 119.737 26.7189 119.72 26.6761C119.988 26.5791 120.259 26.4877 120.53 26.3993C120.507 26.4563 120.496 26.5191 120.507 26.5962C120.63 27.3868 120.753 28.1803 120.875 28.9738C120.964 29.5418 120.995 30.1412 121.258 30.6464C121.232 30.6521 121.206 30.6607 121.181 30.6664C121.047 30.6978 121.078 30.8976 121.215 30.8805C121.272 30.8719 121.326 30.8662 121.386 30.8577C121.389 30.8605 121.389 30.8634 121.392 30.8662C121.495 31.0089 121.749 30.9661 121.803 30.8006C122.904 30.6493 123.972 30.4666 125.056 30.1612C126.004 29.8958 127.111 29.6874 127.981 29.1822C127.99 29.4277 128.004 29.6703 128.021 29.9129C126.694 30.2297 125.41 30.8205 124.1 31.203Z" fill="#096601"/>
<path d="M130.378 36.9259C130.233 35.9297 130.007 34.8479 129.999 33.8318C130.107 33.7976 130.219 33.7633 130.321 33.7234C130.461 33.6663 130.461 33.4322 130.31 33.3923C128.835 32.9755 126.943 33.6035 125.484 33.9232C123.752 34.2999 122.008 34.7566 120.382 35.4616C120.242 35.5216 120.31 35.7442 120.462 35.7185C120.573 35.7014 120.681 35.6728 120.79 35.6529C120.673 35.7156 120.587 35.8669 120.636 36.0153C121.206 37.7422 121.637 39.5176 122.214 41.2358C122.262 41.3814 122.362 41.4385 122.471 41.4385C122.459 41.4956 122.482 41.5641 122.542 41.5898C123.84 42.1406 125.048 41.8352 126.366 41.4528C127.984 40.9847 129.813 40.5166 131.334 39.8058C131.497 39.7316 131.463 39.4662 131.275 39.4548C131.1 39.4433 130.926 39.4433 130.752 39.4548C130.778 38.6242 130.495 37.7222 130.378 36.9259ZM122.693 41.3557C122.793 41.2815 122.867 41.1616 122.864 41.0303C122.836 40.1112 122.496 39.1893 122.225 38.3159C121.946 37.4082 121.643 36.5034 121.092 35.7242C121.047 35.6614 120.992 35.63 120.938 35.6215C122.502 35.3246 124.037 34.885 125.593 34.5425C126.885 34.26 128.395 34.2771 129.694 33.9289C129.562 34.7224 129.577 35.4902 129.665 36.3036C129.771 37.2855 129.782 38.5499 130.147 39.5175C127.662 39.9229 125.279 41.8866 122.693 41.3557Z" fill="#096601"/>
<path d="M129.465 38.2417C128.638 38.3987 127.89 38.7012 127.079 38.9724C126.26 39.2464 125.404 39.4177 124.582 39.6831C124.174 38.2817 123.626 36.8916 123.17 35.5101C123.167 35.5044 123.158 35.5016 123.156 35.5073C122.747 35.9269 122.799 36.5605 122.893 37.0943C123.07 38.099 123.441 39.2864 123.963 40.1626C124.112 40.4138 124.508 40.4081 124.637 40.1997C125.45 40.1341 126.266 39.8743 127.037 39.6374C127.967 39.3492 128.854 39.1208 129.568 38.4615C129.656 38.3816 129.594 38.2189 129.465 38.2417Z" fill="#096601"/>
<path d="M80.6003 18.4273C80.3264 20.4766 79.6158 22.5289 79.0422 24.5069C78.9908 24.6867 79.2391 24.8551 79.3504 24.6724C80.529 22.7115 80.7972 20.6878 81.0455 18.4701C81.0769 18.1875 80.6403 18.1418 80.6003 18.4273Z" fill="#096601"/>
<path d="M83.0574 48.6027C84.1247 45.7313 84.8124 42.683 85.4574 39.6917C85.5116 39.4376 85.075 39.3349 85.0122 39.5861C84.3016 42.5602 83.0088 45.4573 82.7292 48.5257C82.7149 48.714 82.9889 48.7854 83.0574 48.6027Z" fill="#096601"/>
<path d="M89.9977 68.7254C89.9464 68.4314 89.5155 68.5085 89.544 68.7996C89.5383 68.7454 89.4156 69.1336 89.4013 69.1964C89.3128 69.6359 89.3242 70.1183 89.3071 70.5636C89.2672 71.5398 89.2044 72.5416 89.4555 73.4949C89.5069 73.6947 89.8065 73.7633 89.8836 73.5378C90.1975 72.6158 90.2717 71.634 90.3002 70.6663C90.3145 70.2268 90.3002 69.8015 90.2489 69.3619C90.2203 69.125 90.032 68.9195 89.9977 68.7254Z" fill="#096601"/>
<defs>
<clipPath id="clip0_0:1">
<rect width="50" height="91" fill="white" transform="translate(0 83)"/>
</clipPath>
</defs>
</svg>
