<svg width="38" height="38" viewBox="0 0 38 38" fill="none" xmlns="http://www.w3.org/2000/svg">
<path opacity="0.2" d="M0 3C0 1.34315 1.34315 0 3 0H35C36.6569 0 38 1.34315 38 3V35C38 36.6569 36.6569 38 35 38H3C1.34315 38 0 36.6569 0 35V3Z" fill="#71CC16"/>
<path d="M16 18.9999H14C13.7348 18.9999 13.4804 19.1053 13.2929 19.2928C13.1054 19.4804 13 19.7347 13 19.9999C13 20.2652 13.1054 20.5195 13.2929 20.7071C13.4804 20.8946 13.7348 20.9999 14 20.9999H16C16.2652 20.9999 16.5196 20.8946 16.7071 20.7071C16.8947 20.5195 17 20.2652 17 19.9999C17 19.7347 16.8947 19.4804 16.7071 19.2928C16.5196 19.1053 16.2652 18.9999 16 18.9999ZM15 16.9999H19C19.2652 16.9999 19.5196 16.8946 19.7071 16.7071C19.8947 16.5195 20 16.2652 20 15.9999C20 15.7347 19.8947 15.4804 19.7071 15.2928C19.5196 15.1053 19.2652 14.9999 19 14.9999H15C14.7348 14.9999 14.4804 15.1053 14.2929 15.2928C14.1054 15.4804 14 15.7347 14 15.9999C14 16.2652 14.1054 16.5195 14.2929 16.7071C14.4804 16.8946 14.7348 16.9999 15 16.9999ZM16 22.9999H14C13.7348 22.9999 13.4804 23.1053 13.2929 23.2928C13.1054 23.4804 13 23.7347 13 23.9999C13 24.2652 13.1054 24.5195 13.2929 24.7071C13.4804 24.8946 13.7348 24.9999 14 24.9999H16C16.2652 24.9999 16.5196 24.8946 16.7071 24.7071C16.8947 24.5195 17 24.2652 17 23.9999C17 23.7347 16.8947 23.4804 16.7071 23.2928C16.5196 23.1053 16.2652 22.9999 16 22.9999ZM28 18.9999H25V9.99995C25.0007 9.82374 24.9548 9.65047 24.867 9.49769C24.7792 9.34491 24.6526 9.21805 24.5 9.12995C24.348 9.04218 24.1755 8.99597 24 8.99597C23.8245 8.99597 23.652 9.04218 23.5 9.12995L20.5 10.8499L17.5 9.12995C17.348 9.04218 17.1755 8.99597 17 8.99597C16.8245 8.99597 16.652 9.04218 16.5 9.12995L13.5 10.8499L10.5 9.12995C10.348 9.04218 10.1755 8.99597 10 8.99597C9.82447 8.99597 9.65203 9.04218 9.50001 9.12995C9.3474 9.21805 9.22079 9.34491 9.13299 9.49769C9.04518 9.65047 8.99931 9.82374 9.00001 9.99995V25.9999C9.00001 26.7956 9.31608 27.5587 9.87869 28.1213C10.4413 28.6839 11.2044 28.9999 12 28.9999H26C26.7957 28.9999 27.5587 28.6839 28.1213 28.1213C28.6839 27.5587 29 26.7956 29 25.9999V19.9999C29 19.7347 28.8947 19.4804 28.7071 19.2928C28.5196 19.1053 28.2652 18.9999 28 18.9999ZM12 26.9999C11.7348 26.9999 11.4804 26.8946 11.2929 26.7071C11.1054 26.5195 11 26.2652 11 25.9999V11.7299L13 12.8699C13.1543 12.9506 13.3259 12.9927 13.5 12.9927C13.6741 12.9927 13.8457 12.9506 14 12.8699L17 11.1499L20 12.8699C20.1543 12.9506 20.3259 12.9927 20.5 12.9927C20.6741 12.9927 20.8457 12.9506 21 12.8699L23 11.7299V25.9999C23.0027 26.3411 23.0636 26.6793 23.18 26.9999H12ZM27 25.9999C27 26.2652 26.8947 26.5195 26.7071 26.7071C26.5196 26.8946 26.2652 26.9999 26 26.9999C25.7348 26.9999 25.4804 26.8946 25.2929 26.7071C25.1054 26.5195 25 26.2652 25 25.9999V20.9999H27V25.9999ZM20.56 23.1699C20.5043 23.1321 20.4437 23.1018 20.38 23.0799C20.3205 23.0495 20.2562 23.0292 20.19 23.0199C20.0294 22.9878 19.8633 22.9956 19.7063 23.0427C19.5494 23.0897 19.4064 23.1747 19.29 23.2899C19.1073 23.4816 19.0037 23.7352 19 23.9999C18.9984 24.13 19.0222 24.259 19.07 24.3799C19.1244 24.5015 19.1987 24.613 19.29 24.7099C19.3872 24.7983 19.4988 24.8693 19.62 24.9199C19.7397 24.9729 19.8691 25.0002 20 25.0002C20.1309 25.0002 20.2603 24.9729 20.38 24.9199C20.5012 24.8693 20.6128 24.7983 20.71 24.7099C20.8027 24.6165 20.876 24.5057 20.9258 24.3839C20.9755 24.262 21.0008 24.1316 21 23.9999C20.9963 23.7352 20.8927 23.4816 20.71 23.2899C20.6625 23.2469 20.6124 23.2069 20.56 23.1699ZM20.7 19.2899C20.5832 19.1762 20.4404 19.0928 20.2841 19.0469C20.1277 19.0009 19.9624 18.994 19.8027 19.0265C19.643 19.059 19.4937 19.1301 19.3677 19.2335C19.2418 19.337 19.143 19.4696 19.08 19.6199C19.0178 19.7714 18.9937 19.9359 19.0099 20.0989C19.0261 20.2619 19.0821 20.4184 19.1729 20.5547C19.2638 20.6909 19.3867 20.8028 19.5309 20.8805C19.6751 20.9581 19.8362 20.9991 20 20.9999C20.2652 20.9999 20.5196 20.8946 20.7071 20.7071C20.8947 20.5195 21 20.2652 21 19.9999C20.9984 19.8693 20.9712 19.7402 20.92 19.6199C20.8718 19.4951 20.7967 19.3824 20.7 19.2899Z" fill="#096601"/>
</svg>
