<svg width="49" height="43" viewBox="0 0 49 43" fill="none" xmlns="http://www.w3.org/2000/svg">
<path d="M48.9351 1.66295C49.0366 1.53482 48.9182 1.38161 48.7659 1.40111C48.7236 1.40668 48.6813 1.41782 48.639 1.4234C48.4415 1.35654 48.2131 1.38718 48.0636 1.55153C45.8016 2.16713 43.6242 4.12535 41.8811 5.52089C41.3791 5.922 40.894 6.3454 40.4088 6.76602C40.4173 6.50975 40.0253 6.40947 39.8673 6.6351C39.6219 6.98886 39.2637 7.46797 39.0606 7.96379C38.4148 8.5571 37.7745 9.15877 37.1484 9.77159C37.2358 9.22284 37.233 8.65738 37.1991 8.18663C37.1935 8.12813 37.1709 8.08356 37.1427 8.05014C38.5868 7.16713 40.045 6.30083 41.5173 5.45404C41.6188 5.39554 41.5511 5.21727 41.4355 5.26184C35.6338 7.45682 30.5541 11.0251 25.6296 14.7075C20.7276 18.3733 15.3433 21.805 10.7375 25.8134C10.3793 26.1254 10.8362 26.6546 11.2311 26.4457C11.5808 26.2591 11.9306 26.0641 12.2775 25.8635C12.0067 27.4735 11.7077 29.078 11.4313 30.6852C11.4031 30.8579 11.6485 30.9944 11.736 30.8134C12.5595 29.1142 12.7711 27.2702 13.0108 25.4234C13.8259 24.922 14.6269 24.3844 15.4195 23.8245C14.4774 26.1894 13.7187 28.805 13.6398 31.2953C13.6313 31.5738 14.0093 31.5877 14.0995 31.3565C15.1177 28.7159 15.4815 25.8189 16.3897 23.1198C17.4982 22.2981 18.5897 21.4373 19.6699 20.5627C19.1792 22.5961 17.4869 24.6323 17.6646 26.7799C17.6843 27.0111 17.972 27.039 18.0594 26.8329C18.8661 24.8858 19.8843 22.6908 20.0563 20.5822C20.0676 20.4624 19.9661 20.3983 19.8645 20.3983C21.9489 18.7075 23.9993 16.9861 26.0752 15.4568C26.1937 15.3705 26.3121 15.2869 26.4306 15.2006C25.9455 16.2312 25.7227 17.4178 25.418 18.507C25.0711 19.7465 24.7157 20.9415 24.5691 22.1978C23.6045 23.0585 22.6173 23.8997 21.6019 24.7131C21.9404 23.9109 22.0701 23.039 22.3042 22.1978C22.5807 21.2033 22.9106 20.2173 23.2999 19.2591C23.4324 18.9331 22.9078 18.7326 22.7386 19.0251C21.7768 20.688 20.7586 22.9276 21.0463 24.8802C21.0576 24.961 21.1168 25.0056 21.1873 25.0334C19.9802 25.9833 18.7392 26.9025 17.4305 27.7632C17.3825 27.7939 17.3543 27.8329 17.3233 27.8691C17.1371 27.6936 16.9538 27.5181 16.7677 27.3426C16.6492 27.2312 16.4913 27.2953 16.4349 27.429C15.3123 30.156 13.9557 33.3649 13.1518 36.5627C12.9854 35.9666 12.7993 35.376 12.6131 34.7883C11.6824 31.8412 10.7431 29.0919 10.2242 26.0334C10.1734 25.7354 9.75034 25.8384 9.72496 26.1003C9.71932 26.156 9.72214 26.2145 9.7165 26.2702C8.38524 25.156 7.04551 24.0919 5.63246 23.078C4.02479 21.9248 2.19713 20.4903 0.228443 20.0585C0.0676759 20.0223 -0.0789885 20.2256 0.0592145 20.3454C1.41022 21.546 3.18147 22.3454 4.69888 23.337C6.32912 24.4011 7.90294 25.5404 9.53317 26.6072C9.5924 26.6462 9.65163 26.6407 9.70522 26.6156C9.61778 28.9248 10.3624 31.117 11.107 33.3036C11.7388 35.156 12.2775 36.9192 12.7034 38.7382C12.5059 39.9666 12.4157 41.1755 12.4862 42.3398C12.5059 42.6574 12.9798 42.7465 13.0644 42.4178C13.1349 42.1449 13.1998 41.8691 13.2618 41.5933C13.2844 41.741 13.3098 41.8858 13.3323 42.0362C13.3549 42.1838 13.6003 42.1783 13.6285 42.0362C13.809 41.1031 13.8146 40.1783 13.7131 39.2618C13.9557 37.883 14.1785 36.4958 14.5169 35.1337C14.689 34.4401 16.652 27.766 17.1795 28.2312C17.1964 28.2479 17.2133 28.2646 17.233 28.2786C17.281 28.468 17.4361 28.6212 17.6336 28.6407C21.2494 31.9387 24.256 35.8357 28.7208 38.1086C29.0734 38.2869 29.3695 37.7939 29.0311 37.585C24.9611 35.0641 21.4807 31.7939 18.0228 28.5237C21.8699 26.3008 25.277 23.3036 28.4754 20.1448C28.5713 20.312 28.8449 20.3677 28.9493 20.1616C29.0959 19.8747 29.2313 19.5738 29.3582 19.2674C30.7544 17.8635 32.1167 16.4373 33.4648 15.0474C35.3546 13.0947 37.2556 11.156 39.2299 9.29248C39.3314 9.30362 39.4386 9.26462 39.5006 9.1727C39.5514 9.09471 39.5909 9.01114 39.6276 8.92479C40.0055 8.57103 40.3806 8.21448 40.767 7.86908C42.1378 6.63231 43.5847 5.47632 45.0739 4.3844C45.8721 3.79944 46.7718 3.33147 47.601 2.77716C45.4123 8.79387 41.3509 13.883 38.8322 19.7604C36.0907 26.1588 34.3025 32.1532 29.5585 37.4847C29.11 37.9889 29.7813 38.6351 30.2975 38.2117C35.1205 34.2702 37.295 27.5042 39.323 21.883C41.8275 14.9387 47.13 9.24234 48.9943 2.05292C49.0225 1.89693 48.9943 1.76601 48.9351 1.66295ZM33.0531 13.8914C32.0744 14.8914 31.1013 15.8886 30.1282 16.8719C30.4892 15.4875 30.7459 14.0557 30.9631 12.7632C31.0195 12.429 30.5626 12.298 30.4469 12.624C29.8152 14.4039 28.9211 16.4457 28.5798 18.415C27.6208 19.3621 26.6506 20.2925 25.6634 21.2033C25.8693 20.5515 26.047 19.8886 26.2247 19.2145C26.5519 17.9666 27.1103 16.5376 26.9834 15.2312C26.9721 15.1031 26.8649 15 26.7465 14.9694C29.2652 13.1337 31.8403 11.3928 34.4633 9.72145C34.4492 9.74652 34.4323 9.77159 34.4238 9.80501C34.2264 10.6128 33.9161 11.3983 33.6284 12.1755C33.4282 12.7159 33.1489 13.3036 33.0531 13.8914ZM36.3304 9.81894C36.1979 10.2089 35.9751 10.5933 35.8989 10.9972C35.3969 11.4986 34.9005 12.0056 34.4069 12.5097C34.6748 11.6741 34.8102 10.8134 34.9653 9.94986C35.0048 9.7298 34.813 9.59053 34.6438 9.60446C35.3376 9.16434 36.0371 8.72702 36.7366 8.29805C36.6717 8.81616 36.4997 9.32312 36.3304 9.81894Z" fill="#096601"/>
<path d="M22.8148 34.5571C21.1789 35.5487 19.8928 36.8384 18.6038 38.2312C17.2387 39.7075 15.631 40.9861 14.2998 42.4596C14.1108 42.6685 14.2885 43.1031 14.6044 42.9777C16.181 42.3537 17.3938 40.7883 18.4966 39.5654C19.9548 37.9443 21.334 36.2284 23.0658 34.8746C23.2519 34.7298 23.0122 34.4373 22.8148 34.5571Z" fill="#096601"/>
<path d="M1.73176 20.0836C9.49933 18.6769 16.0654 13.7131 23.2096 10.6908C27.5729 8.84401 31.7951 6.70195 36.1951 4.92479C38.0989 4.15599 40.0309 3.46797 41.9742 2.80223C42.9473 2.46797 43.9344 2.16992 44.9188 1.87465C45.1698 1.79944 47.9197 0.76323 46.7098 1.5571C46.7013 1.56267 46.7098 1.57381 46.7154 1.56824C47.0369 1.3454 47.3867 1.1727 47.7618 1.05292C48.5261 1.06407 48.4049 -0.142063 47.6208 0.0139263C39.5176 1.64624 31.8854 5.30641 24.4845 8.82451C16.9595 12.4011 9.5924 17.0334 1.42151 18.9749C0.685366 19.1504 1.00408 20.2145 1.73176 20.0836Z" fill="#096601"/>
</svg>
