<svg width="179" height="196" viewBox="0 0 179 196" fill="none" xmlns="http://www.w3.org/2000/svg">
<path d="M89.2302 74.8635C82.5019 70.6267 77.648 64.1812 71.5226 59.1907C70.944 58.7216 71.3367 57.6752 72.027 57.5347C75.7025 56.7856 79.4396 55.8763 83.0994 54.7512C82.744 54.8586 82.3204 54.7584 82.0472 54.3625C78.187 48.6612 76.0809 41.7015 72.5967 35.7154C68.9821 29.4988 64.1108 24.3124 58.3505 20.0463C51.7653 15.1686 44.0958 11.3802 36.1086 9.52259C27.5954 7.54214 19.974 10.2636 11.6748 11.6364C10.9504 11.7559 10.5827 10.8764 11.1958 10.4572C26.1532 0.268806 45.2632 7.18581 58.7562 16.3329C70.7351 24.4486 80.8796 39.3935 83.7279 53.6785C83.8286 54.1811 83.5759 54.5572 83.2179 54.7153C86.8172 53.6021 90.3484 52.2811 93.6807 50.6879C94.1675 50.4567 94.9018 51.0032 94.5118 51.5242C93.7347 52.5557 92.4614 53.2953 91.0546 53.8778C91.801 54.0503 92.5365 54.2826 93.2391 54.5515C93.7225 52.8268 94.3564 51.384 95.0811 51.7791C96.6346 52.6269 94.5482 58.6541 94.308 59.8514C93.6905 62.9058 93.036 65.9498 92.364 68.9948C92.0105 70.6011 91.8418 72.6131 90.925 74.0461C90.7962 74.7997 90.0809 75.4022 89.2302 74.8635ZM92.7482 56.5715C91.4287 56.3433 90.0567 55.9747 88.875 55.3729C88.6244 55.2463 88.5016 55.0293 88.4529 54.7928C87.4282 55.1094 86.4485 55.3871 85.6277 55.6687C84.9956 55.8883 84.3558 56.0942 83.7198 56.3069C84.7702 56.6608 85.7598 57.358 86.711 57.8845C88.3854 58.8115 90.1209 59.9098 91.9485 60.5933C92.045 60.1625 92.1361 59.7303 92.234 59.2942C91.4782 59.0734 90.7482 58.7797 90.0135 58.4618C88.7952 57.93 87.4229 57.4183 86.6244 56.2993C86.5173 56.1496 86.6675 55.9167 86.8408 55.9304C88.057 56.0156 89.1675 56.6892 90.2374 57.22C90.9551 57.5789 91.6951 57.8982 92.4254 58.232C92.5094 57.7635 92.6176 57.1873 92.7482 56.5715ZM90.2043 68.3966C90.2181 68.3261 90.2372 68.257 90.2496 68.1918C88.798 68.4818 86.6969 67.1564 85.6614 66.5836C83.0555 65.1414 78.785 63.3352 77.1077 60.789C76.9056 60.4871 77.1804 60.0314 77.5421 60.0458C78.3291 60.0922 79.146 60.3814 79.9495 60.7812C79.4034 60.4012 78.9454 59.9713 78.6509 59.4665C78.5037 59.2142 78.6415 58.8406 78.9383 58.7798C80.7152 58.4084 82.6564 59.8782 84.1745 60.6475C85.1215 61.1272 86.0924 61.5619 87.0477 62.0324C87.6255 62.3182 89.2177 63.1709 89.9377 63.0673C90.4084 62.9975 90.6133 63.6604 90.1356 63.7969C88.3054 64.3194 86.7562 63.8274 85.0105 63.0751C84.0155 62.6451 82.6322 62.1933 81.3795 61.6005C82.4088 62.2573 83.3949 62.9879 84.2426 63.5372C84.8577 63.9363 89.7683 67.6811 90.4036 67.2852C90.4239 67.2737 90.4413 67.2728 90.4616 67.2612C90.8954 65.3856 91.3118 63.5108 91.7191 61.6277C90.1146 61.4178 88.6789 60.9287 87.1189 60.2278C85.3753 59.4475 82.8962 58.5379 81.7438 56.9434C79.2581 57.7075 76.687 58.3679 73.9923 58.8968C76.9013 61.1836 79.4846 63.5118 82.0251 65.7881C83.2631 66.4341 84.4861 67.0931 85.6812 67.853C86.5266 68.3902 87.3831 68.9077 88.2285 69.4449C88.5531 69.6549 88.8603 69.8658 89.1626 70.1154C89.7839 70.6363 89.1627 70.3213 89.3296 70.9565C89.2664 70.7103 89.4284 70.5378 89.6194 70.4878C89.8262 69.7616 90.0499 69.0572 90.2043 68.3966ZM89.3896 71.3792C89.1061 71.3921 88.775 71.329 88.4278 71.2214C88.7094 71.4424 89.0045 71.6557 89.2929 71.8728C89.3226 71.7037 89.3561 71.5415 89.3896 71.3792Z" fill="#096601"/>
<path d="M175.65 147.221C172.07 147.245 168.492 147.301 164.915 147.373C163.133 147.408 161.352 147.459 159.571 147.494C157.805 147.53 155.844 147.328 154.14 147.85C154.048 147.88 154.024 147.975 154.056 148.046C150.943 149.15 147.931 150.577 144.935 151.945C144.755 150.699 144.501 149.468 144.159 148.26C143.764 146.859 143.198 145.503 142.477 144.236C142.13 143.625 141.636 142.693 140.974 142.2C141.001 142.102 140.962 141.981 140.872 141.939C139.935 141.512 138.804 141.93 137.831 142.129C136.259 142.45 134.723 142.916 133.202 143.426C131.909 143.859 130.64 144.352 129.376 144.868C130.116 144.423 130.849 143.969 131.589 143.554C133.78 142.319 136.049 141.165 138.477 140.47C138.474 140.491 138.471 140.515 138.468 140.536C138.408 140.987 139.193 141.091 139.268 140.642C139.848 137.215 140.244 133.515 139.989 130.028C140.01 130.016 140.028 130.007 140.049 129.995C140.139 130.058 140.232 130.12 140.327 130.167C140.549 130.277 140.788 130.141 140.803 129.894C140.863 128.909 139.765 127.971 139.109 127.342C138.055 126.331 136.825 125.488 135.6 124.698C133.265 123.191 130.753 122.019 128.23 120.864C130.61 118.654 132.996 116.449 135.361 114.22C137.867 111.861 140.345 109.475 142.755 107.021C144.004 105.748 145.219 104.443 146.411 103.116C147.267 102.164 148.434 101.155 148.976 99.9648C158.044 100.063 167.112 100.294 176.183 100.048C176.812 100.03 176.812 99.0627 176.183 99.0835C166.971 99.3506 157.754 99.0865 148.539 99.1725C148.255 99.1755 148.135 99.4129 148.165 99.6295C147.222 100.374 146.479 101.546 145.704 102.419C144.522 103.751 143.297 105.051 142.067 106.339C139.693 108.829 137.232 111.232 134.735 113.6C132.301 115.909 129.837 118.185 127.386 120.476C127.221 120.402 127.056 120.324 126.892 120.25C124.134 118.986 121.332 117.802 118.422 116.924C115.839 116.143 112.728 115.44 110.043 116.206C109.986 116.188 109.923 116.185 109.851 116.2C109.801 116.209 109.771 116.25 109.759 116.295C109.432 116.44 109.552 116.879 109.881 116.906C109.881 117.312 109.816 117.838 109.807 117.989C109.747 119.223 109.579 120.461 109.426 121.689C108.965 125.333 108.352 128.96 107.75 132.583C107.13 136.31 106.484 140.034 105.909 143.77C105.603 145.749 105.082 147.993 105.211 150.046C105.076 150.085 104.963 150.195 104.963 150.376C104.951 151.88 104.888 153.394 104.939 154.898C104.948 155.174 105.184 155.293 105.391 155.26C105.37 155.417 105.346 155.575 105.322 155.732C105.319 155.75 105.316 155.77 105.313 155.791C105.064 155.699 104.819 155.598 104.571 155.515C104.379 155.453 104.292 155.673 104.388 155.806C104.307 155.877 104.277 156.008 104.37 156.112C104.741 156.524 105.109 156.928 105.472 157.331C105.406 157.361 105.352 157.411 105.343 157.489C105.19 158.578 105.097 159.851 105.289 160.981C105.07 160.435 104.846 159.895 104.606 159.361C104.586 159.085 104.553 158.815 104.529 158.563C104.496 158.162 104.475 157.759 104.487 157.355C104.487 157.293 104.505 156.634 104.553 156.616C104.687 156.56 104.666 156.385 104.52 156.367C103.84 156.29 103.708 156.901 103.678 157.435C103.598 157.278 103.511 157.124 103.427 156.969C103.496 156.889 103.538 156.785 103.514 156.67C102.155 149.358 104.029 142.085 104.196 134.737C104.265 131.666 104.723 128.607 104.855 125.535C104.918 124.04 104.909 122.529 104.723 121.043C104.624 120.253 104.538 119.283 103.804 118.832C103.684 118.758 103.535 118.853 103.535 118.986C103.52 119.968 103.885 120.962 103.948 121.959C104.047 123.538 103.933 125.126 103.84 126.701C103.663 129.666 103.256 132.621 103.235 135.595C103.208 139.432 102.544 143.263 102.206 147.079C101.963 149.812 101.565 153.201 102.475 155.946C102.337 156.011 102.241 156.147 102.313 156.319C102.81 157.497 103.292 158.67 103.765 159.845C103.828 160.213 103.921 160.56 104.074 160.854C104.098 160.898 104.142 160.925 104.19 160.937C105.463 164.156 106.648 167.391 107.696 170.726C108.438 173.082 109.211 175.436 110.082 177.75C110.848 179.786 111.564 182.264 112.833 184.053C113.031 184.329 113.507 184.169 113.405 183.816C113.174 183.012 112.875 182.216 112.555 181.424C112.63 181.433 112.707 181.412 112.74 181.338C113.959 178.584 114.18 175.145 113.788 172.192C113.77 172.047 113.525 171.976 113.501 172.154C113.079 175.091 112.683 178.077 112.393 181.032C111.905 179.86 111.381 178.691 110.977 177.507C110.582 176.356 110.196 175.198 109.81 174.041C110.312 172.575 110.477 171.002 110.672 169.474C110.812 168.349 111.247 166.48 110.54 165.474C110.489 165.403 110.354 165.376 110.312 165.474C109.866 166.492 110.013 167.928 109.89 169.029C109.747 170.293 109.468 171.578 109.414 172.863C109.094 171.907 108.777 170.952 108.447 169.999C107.513 167.287 106.636 164.456 105.576 161.714C105.654 161.723 105.738 161.688 105.765 161.596C106.103 160.423 106.04 159.017 105.885 157.788C106.37 158.328 106.843 158.871 107.298 159.432C107.154 159.391 106.968 159.45 106.942 159.613C106.684 161.201 106.747 162.943 107.028 164.521C107.058 164.697 107.352 164.697 107.385 164.521C107.663 162.955 107.726 161.231 107.477 159.655C107.974 160.281 108.453 160.931 108.896 161.631C110.238 163.753 111.348 166.026 112.405 168.302C112.285 168.228 112.121 168.231 112.097 168.406C111.72 171.166 111.429 173.946 111.064 176.712C111.043 176.878 111.312 176.946 111.381 176.798C112.495 174.367 112.845 171.231 112.537 168.581C112.597 168.711 112.66 168.845 112.722 168.976C114.752 173.379 116.312 178.038 118.752 182.246C118.671 182.29 118.596 182.341 118.518 182.391C118.446 182.305 118.333 182.276 118.216 182.285C118.081 182.276 117.952 182.323 117.887 182.442C117.836 182.504 117.818 182.584 117.83 182.673C117.623 184.148 117.74 185.712 117.725 187.199C117.713 188.338 117.683 189.486 117.683 190.635C116.979 189.745 116.228 188.884 115.539 187.988C114.737 186.946 113.944 185.884 113.07 184.896C113.067 184.837 113.067 184.774 113.064 184.715C113.04 184.433 112.857 184.288 112.657 184.261C112.707 184.026 112.525 183.736 112.21 183.81C99.2657 186.845 84.6055 182.765 75.6573 172.913C66.8439 163.21 65.8679 149.183 71.4751 137.791C72.011 138.45 72.5499 139.102 73.1067 139.746C74.5556 141.42 76.4177 143.797 78.5103 144.684C79.0133 144.895 79.5192 144.346 79.1121 143.91C78.2918 143.028 77.1901 142.361 76.295 141.539C75.331 140.654 74.4389 139.696 73.5677 138.723C73.0169 138.108 72.484 137.485 71.9541 136.853C72.2685 136.26 72.5978 135.672 72.948 135.096C75.9657 130.144 80.3066 126.028 85.4048 123.224C90.9103 120.194 96.9695 119.304 103.184 119.618C103.598 119.639 103.693 118.974 103.283 118.9C90.1558 116.562 77.3428 124.639 70.9452 135.633C70.0411 134.527 69.152 133.408 68.2479 132.301C66.4696 130.117 64.6255 127.983 62.5599 126.057C60.9133 124.523 58.8357 122.701 56.6323 121.897C56.6114 121.885 56.5994 121.862 56.5754 121.853C56.4677 121.814 56.3539 121.79 56.2402 121.764C56.1623 121.74 56.0875 121.707 56.0096 121.686C55.9587 121.675 55.9198 121.678 55.8809 121.689C54.5876 121.482 53.0099 121.737 51.7915 121.784C49.654 121.865 47.5195 121.989 45.385 122.066C41.2686 122.218 37.2152 122.04 33.1347 121.508C33 121.491 32.9431 121.71 33.0659 121.761C36.5446 123.268 40.7088 123.04 44.436 122.948C46.5974 122.894 48.7559 122.776 50.9173 122.684C51.9023 122.642 52.8872 122.609 53.8721 122.589C54.7044 122.574 55.6264 122.707 56.4437 122.523C57.255 123.049 58.1112 123.508 58.9016 124.063C60.111 124.912 61.2157 125.9 62.2725 126.924C64.3052 128.885 66.1044 131.069 67.8677 133.268C68.7329 134.346 69.5831 135.438 70.4453 136.518C69.9423 137.449 69.4843 138.402 69.0742 139.369C65.7003 144.019 64.8321 150.607 64.8351 156.165C64.8381 162.566 66.296 168.91 68.8137 174.786C71.2835 180.549 75.0077 185.887 79.8934 189.887C85.4976 194.475 92.5987 195.884 99.7147 195.991C103.723 196.05 107.744 195.632 111.69 194.941C112.085 194.872 112.228 194.567 112.19 194.264C112.405 194.317 112.66 194.217 112.734 193.967C113.142 192.614 112.932 190.875 112.986 189.475C113.031 188.317 113.121 187.115 113.112 185.937C114.462 187.985 115.98 190.154 117.704 191.825C117.713 192.11 117.719 192.395 117.737 192.676C117.749 192.893 117.872 193.03 118.021 193.092C117.68 193.225 117.339 193.359 116.997 193.501C116.737 193.611 116.875 194.03 117.138 194.018C119.243 193.905 121.422 192.825 123.278 191.914C125.787 190.682 128.125 189.124 130.28 187.362C131.295 186.531 132.253 185.635 133.139 184.67C135.256 187.136 137.376 189.626 139.866 191.694C140.148 191.929 140.498 191.795 140.651 191.561C143.674 191.899 146.806 191.528 149.826 191.383C153.437 191.211 157.017 191.187 160.616 191.543C161.223 191.602 161.199 190.691 160.616 190.614C157.233 190.166 153.781 190.303 150.383 190.469C147.165 190.626 143.857 190.662 140.657 191.113C140.633 191.074 140.612 191.033 140.57 190.997C138.127 188.801 135.939 186.38 133.759 183.943C134.397 183.196 135.005 182.427 135.546 181.608C136.259 180.534 137.825 178.005 137.693 176.341C137.708 176.326 137.732 176.323 137.744 176.302C137.953 175.913 137.819 175.531 137.732 175.118C137.702 174.976 137.687 174.827 137.663 174.685C138.019 174.75 138.375 174.83 138.72 174.949C138.932 175.023 139.127 175.133 139.318 175.243C139.393 175.421 139.606 175.542 139.8 175.483C139.932 175.537 140.07 175.575 140.22 175.59C140.393 175.605 140.456 175.406 140.399 175.278C140.36 175.192 140.309 175.115 140.25 175.044C141.875 173.148 142.836 170.658 143.57 168.32C144.59 165.064 145.09 161.64 145.231 158.239C145.303 156.495 145.252 154.738 145.06 152.993C148.389 151.509 151.715 150.058 155.113 148.732C155.296 148.66 155.392 148.521 155.431 148.37C156.598 148.494 157.82 148.402 158.972 148.396C160.753 148.384 162.535 148.361 164.319 148.337C168.094 148.287 171.869 148.198 175.647 148.212C176.297 148.218 176.297 147.218 175.65 147.221ZM111.318 193.605C103.678 194.97 95.4547 195.303 87.9944 192.881C81.54 190.786 76.5704 185.569 73.0498 179.997C67.1941 170.726 64.6585 158.916 66.7061 148.07C65.5805 156.524 67.6641 165.314 73.1336 172.192C82.2794 183.691 98.0383 188.196 112.13 184.59C112.115 184.632 112.097 184.673 112.091 184.724C111.908 186.291 111.947 187.908 111.881 189.484C111.827 190.765 111.564 192.403 111.833 193.706C111.69 193.614 111.519 193.57 111.318 193.605ZM143.234 148.868C143.561 150.025 143.785 151.209 143.938 152.405C143.357 152.672 142.773 152.94 142.192 153.21C142.171 151.304 142.043 149.399 141.776 147.515C141.654 146.64 141.594 145.447 141.324 144.405C141.414 144.527 141.498 144.646 141.57 144.764C142.33 146.037 142.833 147.447 143.234 148.868ZM137.163 143.275C138.055 143.052 139.208 143.04 140.13 142.714C140.187 142.844 140.256 142.972 140.336 143.099C140.208 144.384 140.794 145.96 140.95 147.212C141.199 149.215 141.294 151.242 141.327 153.26C141.33 153.373 141.327 153.486 141.327 153.601C140.809 153.836 140.297 154.073 139.777 154.305C138.211 154.999 136.01 155.48 134.744 156.658C134.639 156.756 134.726 156.916 134.855 156.922C136.445 157.005 138.184 155.975 139.624 155.376C140.196 155.138 140.764 154.892 141.333 154.646C141.312 157.981 140.983 161.367 140.061 164.572C134.109 163.041 128.607 160.302 122.787 158.352C118.153 156.8 113.384 154.462 108.438 153.931C108.923 153.83 109.399 153.702 109.848 153.601C111.444 153.239 113.01 152.747 114.558 152.212C114.731 152.153 114.905 152.082 115.078 152.02C115.12 152.183 115.345 152.242 115.444 152.082C115.492 152.002 115.53 151.919 115.575 151.839C118.258 150.853 120.871 149.681 123.473 148.518C126.472 147.177 129.457 145.818 132.547 144.69C134.056 144.132 135.6 143.663 137.163 143.275ZM137.358 172.397C137.337 172.192 137.319 171.987 137.304 171.78C137.834 171.664 138.363 171.355 138.795 171.035C138.825 171.569 138.881 172.094 138.965 172.617C138.902 172.599 138.836 172.59 138.771 172.608C138.331 172.717 137.819 172.928 137.453 173.255C137.423 172.97 137.391 172.682 137.358 172.397ZM138.768 170.323C138.423 170.415 138.085 170.593 137.777 170.768C137.603 170.866 137.42 170.97 137.241 171.079C137.193 170.563 137.115 170.059 136.947 169.587C137.019 169.625 137.088 169.676 137.166 169.708C137.334 169.783 137.498 169.664 137.465 169.48C137.414 169.216 137.289 168.973 137.112 168.744C137.367 168.616 137.612 168.474 137.834 168.323C138.07 168.162 138.307 168.011 138.528 167.827C138.567 167.795 138.678 167.551 138.627 167.628C138.669 167.563 138.63 167.572 138.69 167.53C138.851 167.418 138.714 167.192 138.537 167.272C138.411 167.329 138.468 167.248 138.289 167.248C138.004 167.248 137.666 167.492 137.42 167.616C137.121 167.765 136.81 167.949 136.525 168.165C135.487 167.364 133.867 166.836 133.002 166.486C132.936 166.459 132.867 166.435 132.801 166.412C133.406 166.204 133.948 165.812 134.517 165.521C135.202 165.168 135.927 164.922 136.645 164.655C137.136 164.818 137.63 164.97 138.127 165.109C136.915 165.468 135.654 165.984 134.738 166.759C134.603 166.875 134.75 167.065 134.9 167.032C136.274 166.738 137.711 166.02 138.953 165.32C138.968 165.323 138.983 165.326 138.998 165.332C138.878 166.94 138.732 168.643 138.768 170.323ZM129.149 162.539C128.613 162.655 128.116 163.067 127.679 163.376C127.299 163.643 126.892 163.972 126.595 164.358C125.913 164.159 125.23 163.961 124.551 163.762C124.389 163.714 124.236 163.655 124.075 163.607C124.38 163.426 124.676 163.228 124.973 163.026C125.682 162.545 126.35 162.047 126.913 161.4C127.035 161.257 126.883 161.076 126.718 161.15C125.961 161.489 125.275 161.913 124.577 162.358C124.098 162.664 123.602 162.952 123.17 163.314C122.673 163.147 122.177 162.978 121.686 162.797C122.221 162.679 122.76 162.21 123.158 161.901C123.778 161.42 124.218 160.886 124.754 160.328C124.886 160.192 124.688 159.999 124.548 160.124C124.03 160.584 123.26 160.892 122.662 161.26C122.168 161.563 121.401 161.978 121.231 162.566C121.225 162.587 121.228 162.604 121.228 162.622C120.632 162.397 120.036 162.165 119.449 161.925C119.767 161.714 120.06 161.447 120.323 161.222C120.904 160.726 121.47 160.183 121.856 159.518C121.946 159.364 121.766 159.186 121.611 159.275C121.06 159.59 120.59 160.023 120.108 160.435C119.671 160.809 119.051 161.144 118.626 161.584C118.129 161.376 117.629 161.165 117.132 160.952C117.485 160.676 117.788 160.26 118.09 159.987C118.629 159.498 119.129 158.966 119.665 158.477C119.8 158.352 119.626 158.133 119.47 158.225C118.809 158.622 118.168 158.978 117.56 159.462C117.192 159.756 116.668 160.186 116.482 160.673C116.213 160.557 115.944 160.441 115.671 160.325C115.51 160.257 115.348 160.186 115.186 160.115C115.459 159.943 115.701 159.72 115.932 159.509C116.444 159.038 116.95 158.524 117.333 157.946C117.455 157.759 117.21 157.515 117.021 157.637C116.482 157.987 116.004 158.438 115.53 158.868C115.198 159.171 114.803 159.465 114.522 159.827C114.046 159.622 113.57 159.414 113.097 159.21C114.216 158.865 115.093 157.598 115.354 156.509C117.779 157.376 120.165 158.367 122.548 159.198C125.482 160.222 128.338 161.358 131.206 162.554C131.631 162.732 132.059 162.91 132.49 163.088C131.286 163.272 130.059 164.222 129.613 165.204C129.601 165.228 129.598 165.257 129.601 165.287C128.879 165.056 128.158 164.833 127.433 164.616C127.646 164.51 127.853 164.391 128.044 164.275C128.55 163.969 129.107 163.616 129.538 163.213C129.846 162.919 129.526 162.459 129.149 162.539ZM112.728 155.767C112.228 156.088 111.809 156.5 111.39 156.916C111.061 157.242 110.597 157.589 110.372 158.023C110.25 157.969 110.127 157.916 110.004 157.862C109.684 157.723 109.363 157.572 109.04 157.423C109.729 156.954 110.351 156.245 110.606 155.489C110.639 155.391 110.6 155.284 110.531 155.213C110.609 155.293 110.582 155.269 110.582 155.165C110.582 154.996 110.327 154.96 110.286 155.127C110.283 155.132 110.286 155.138 110.286 155.141C110.199 155.156 110.133 155.204 110.07 155.269C109.893 155.453 109.732 155.652 109.561 155.842C109.193 156.254 108.861 156.726 108.585 157.213C108.1 156.984 107.612 156.759 107.124 156.536C107.792 156.236 108.172 155.364 108.313 154.711C108.322 154.675 108.319 154.64 108.316 154.604C110.6 154.945 112.827 155.607 115.028 156.382C114.785 156.877 114.42 157.334 114.055 157.738C113.621 158.216 113.058 158.542 112.582 158.972C112.049 158.741 111.519 158.512 110.986 158.281C111.273 158.07 111.519 157.773 111.755 157.536C112.216 157.076 112.689 156.622 113.049 156.076C113.171 155.892 112.923 155.643 112.728 155.767ZM105.876 153.954C105.837 153.925 105.795 153.83 105.744 153.83H105.741C105.747 152.643 105.723 151.883 105.708 150.889C105.828 150.842 105.93 150.764 105.936 150.622C105.936 150.607 105.939 150.604 105.939 150.592C106.678 150.221 107.376 149.459 108.004 148.853C107.929 149.361 107.792 149.871 107.669 150.37C107.441 151.296 106.885 152.343 106.936 153.302C106.939 153.337 106.957 153.364 106.968 153.394C106.744 153.477 106.522 153.569 106.319 153.681C106.268 153.711 106.244 153.761 106.241 153.815C106.208 153.815 106.175 153.788 106.142 153.788C105.996 153.797 105.909 153.853 105.876 153.954ZM109.992 152.242C110.01 152.432 110.262 152.471 110.327 152.287C111.034 150.304 111.755 148.017 112.022 145.904C112.312 145.717 112.603 145.527 112.893 145.343C113.492 144.963 114.097 144.595 114.707 144.233C114.393 145.331 114.067 146.417 113.674 147.494C113.174 148.871 112.495 150.233 112.375 151.711C112.357 151.925 112.651 151.966 112.755 151.812C113.647 150.462 114.165 148.859 114.701 147.346C115.046 146.373 115.572 144.987 115.213 143.924C115.899 143.518 116.59 143.117 117.285 142.723C116.872 143.88 116.728 145.263 116.387 146.402C115.938 147.898 115.276 149.471 115.105 151.052C113.615 151.619 112.106 152.129 110.573 152.566C109.672 152.821 108.63 152.934 107.672 153.18C108.112 152.521 108.268 151.569 108.456 150.856C108.669 150.055 108.971 149.037 108.774 148.203C109.522 147.613 110.3 147.058 111.091 146.524C110.393 148.331 109.83 150.388 109.992 152.242ZM123.691 147.352C122.997 147.666 122.302 147.978 121.605 148.293C122.389 146.945 122.91 145.423 123.374 143.957C123.91 142.266 124.422 140.438 124.272 138.648C125.015 138.191 125.751 137.731 126.49 137.266C126.002 138.904 125.721 140.613 125.149 142.248C124.571 143.901 123.835 145.586 123.691 147.352ZM122.449 143.702C121.886 145.34 121.135 146.954 120.79 148.655C119.249 149.346 117.701 150.014 116.129 150.643C116.638 149.355 116.95 147.948 117.291 146.649C117.599 145.468 118.249 143.663 117.893 142.375C119.138 141.666 120.386 140.963 121.626 140.242C122.365 139.812 123.096 139.369 123.826 138.924C123.353 140.515 122.988 142.129 122.449 143.702ZM131.562 164.468C132.211 164.106 132.903 163.952 133.586 163.679C133.642 163.655 133.681 163.619 133.714 163.578C134.331 163.824 134.951 164.058 135.573 164.284C135.208 164.394 134.846 164.521 134.502 164.664C133.693 165.002 132.726 165.421 132.301 166.225C131.514 165.922 130.715 165.64 129.909 165.379C130.49 165.121 131.005 164.777 131.562 164.468ZM124.392 147.034C125.155 145.441 125.748 143.752 126.305 142.085C126.79 140.628 127.604 138.482 127.032 136.924C127.652 136.536 128.272 136.15 128.891 135.767C128.388 137.233 128.008 138.752 127.559 140.23C127.02 141.993 126.449 143.735 126.083 145.542C126.041 145.746 126.317 145.877 126.431 145.687C128.224 142.657 129.481 138.77 129.748 135.242C130.014 135.079 130.277 134.915 130.544 134.755C131.191 134.366 131.843 133.992 132.502 133.621C132.029 135.096 131.792 136.657 131.379 138.153C130.897 139.895 130.005 141.598 129.727 143.384C129.694 143.601 129.843 143.752 130.011 143.761C128.646 144.536 127.299 145.364 126.065 146.287C125.506 146.536 124.949 146.785 124.392 147.034ZM138.567 139.743C136.313 140.384 134.217 141.426 132.173 142.551C131.559 142.889 130.933 143.236 130.307 143.586C131.271 142.251 131.714 140.488 132.161 138.93C132.64 137.263 133.119 135.363 132.906 133.619C132.897 133.535 132.843 133.485 132.783 133.455C133.565 133.019 134.355 132.598 135.154 132.191C136.486 131.515 137.995 131.055 139.336 130.384C139.064 133.509 138.935 136.628 138.567 139.743ZM108.843 130.571C109.402 127.102 109.974 123.627 110.348 120.132C110.381 119.829 110.672 117.9 110.453 116.858C116.048 116.194 121.692 118.885 126.628 121.197C124.329 123.354 122.042 125.526 119.814 127.758C119.458 128.114 120.009 128.66 120.368 128.307C122.7 126.034 125.074 123.805 127.457 121.586C129.787 122.678 132.092 123.779 134.298 125.117C135.624 125.921 136.891 126.817 138.052 127.841C138.516 128.25 138.917 128.841 139.36 129.351C138.202 129.58 137.07 130.164 136.007 130.633C134.256 131.405 132.583 132.36 130.93 133.322C127.604 135.257 124.413 137.408 121.105 139.369C118.057 141.177 114.938 142.856 111.956 144.77C110.513 145.696 109.118 146.696 107.777 147.761C107.277 148.159 106.579 148.637 106.028 149.186C106.481 142.954 107.849 136.708 108.843 130.571ZM106.088 154.462C106.085 154.432 106.079 154.405 106.073 154.376C106.094 154.382 106.112 154.391 106.136 154.391C106.669 154.417 107.196 154.471 107.723 154.536C107.561 154.871 107.4 155.21 107.202 155.524C107.022 155.803 106.771 156.029 106.603 156.313C106.394 156.222 106.187 156.127 105.975 156.038C106.079 155.524 106.133 154.957 106.088 154.462ZM113.174 168.225C112.058 165.708 110.833 163.245 109.348 160.922C108.504 159.598 107.48 158.1 106.241 156.96C108.944 158.45 112.016 159.53 114.782 160.732C117.381 161.86 119.931 163.064 122.617 163.964C122.623 164.056 122.7 164.136 122.82 164.112C122.868 164.103 122.91 164.085 122.955 164.073C123.081 164.115 123.203 164.156 123.329 164.195C125.898 164.987 128.49 165.705 131.032 166.584C132.337 167.035 133.621 167.545 134.846 168.177C135.199 168.361 135.522 168.599 135.84 168.842C135.822 168.869 135.795 168.889 135.777 168.916C135.684 169.05 135.837 169.192 135.969 169.165C136.043 169.151 136.118 169.124 136.193 169.103C136.247 169.142 136.301 169.18 136.355 169.219C136.283 169.24 136.217 169.281 136.16 169.361C133.87 172.617 131.358 175.278 128.059 177.569C128.035 177.587 128.008 177.602 127.984 177.62C127.574 177.151 127.167 176.676 126.778 176.183C125.823 174.973 124.494 173.145 122.769 173.13C122.659 173.13 122.59 173.275 122.676 173.353C124.152 174.667 125.437 175.81 126.658 177.391C126.847 177.637 127.05 177.869 127.248 178.106C125.94 178.958 124.574 179.721 123.176 180.415C122.036 180.982 120.671 181.338 119.473 181.878C117.009 177.522 115.198 172.792 113.174 168.225ZM129.607 186.688C127.64 188.347 125.452 189.754 123.179 190.961C121.713 191.739 120.18 192.279 118.65 192.855C118.671 192.801 118.689 192.745 118.695 192.679C118.806 190.863 118.725 189.024 118.707 187.205C118.695 185.884 118.776 184.504 118.653 183.178C118.854 183.166 119.057 183.139 119.261 183.098C119.488 183.353 119.886 183.198 119.955 182.917C121.108 182.555 122.278 181.905 123.254 181.436C124.85 180.673 126.377 179.777 127.844 178.795C128.778 179.848 129.766 180.851 130.715 181.899C131.322 182.566 131.918 183.252 132.514 183.943C131.607 184.923 130.619 185.834 129.607 186.688ZM134.702 181.118C134.235 181.863 133.702 182.569 133.13 183.24C132.427 182.457 131.723 181.67 131.011 180.896C130.2 180.014 129.385 179.157 128.589 178.281C128.694 178.207 128.805 178.136 128.909 178.062C131.694 176.08 134.657 173.504 136.37 170.456C136.331 171.192 136.445 171.987 136.51 172.72C136.57 173.391 136.537 174.872 136.915 175.759C136.522 176.364 136.489 177.243 136.277 177.913C135.915 179.056 135.334 180.112 134.702 181.118ZM137.741 174.062C138.181 173.792 138.684 173.62 139.103 173.317C139.19 173.718 139.301 174.112 139.432 174.498C139.253 174.424 139.073 174.358 138.905 174.296C138.525 174.154 138.136 174.085 137.741 174.062ZM144.168 158.242C143.995 163.554 142.854 169.002 140.157 173.628C139.486 171.059 139.932 168.406 139.854 165.771C140.031 166.014 140.498 166.035 140.633 165.667C140.726 165.682 140.815 165.702 140.905 165.717C141.483 165.806 141.746 164.967 141.151 164.83C141.067 164.809 140.983 164.788 140.896 164.768C141.869 161.37 142.165 157.788 142.192 154.266C142.812 153.993 143.432 153.717 144.052 153.444C144.195 155.043 144.219 156.652 144.168 158.242Z" fill="#096601"/>
<path d="M39.7808 118.31C41.0172 117.247 41.5441 115.571 41.3105 113.986C41.1489 112.888 40.3975 111.728 39.2868 111.41C38.7749 111.265 38.3588 111.398 38.0205 111.674C38.0175 111.345 37.9995 111.033 37.9546 110.751C39.0623 110.695 40.2029 110.737 41.2477 110.413C41.4542 110.348 41.4542 110.06 41.2477 109.998C39.8586 109.57 38.1881 109.799 36.793 110.105C36.338 110.205 36.4967 110.799 36.8978 110.832C36.7661 111.76 36.9188 113.027 36.9128 113.93C36.9098 114.502 37.8019 114.639 37.9307 114.066C38.0624 113.487 38.3438 112.051 39.2449 112.437C39.8466 112.692 40.125 113.416 40.2747 113.992C40.4933 114.838 40.1131 115.805 39.7059 116.526C38.9455 117.87 37.7151 117.674 36.5775 117.019C36.1943 116.799 35.7872 117.229 35.9877 117.603C36.7541 119.022 38.5204 119.393 39.7808 118.31Z" fill="#096601"/>
<path d="M43.5887 118.232C44.9179 118.173 46.0077 116.977 46.6753 115.95C47.28 115.022 47.768 113.728 47.28 112.657C46.7591 111.508 45.2233 111.612 44.0468 111.888C44.1067 111.44 44.0707 111.007 44.0408 110.475C44.0288 110.283 43.9151 110.111 43.7205 110.06C43.1427 109.903 42.6846 110.084 42.4571 110.651C42.3284 110.971 42.8343 111.265 43.0499 110.992C43.0828 110.944 43.1277 110.915 43.1786 110.891C43.1906 111.398 43.1846 111.82 42.9032 112.354C42.7056 112.731 43.0289 113.211 43.469 113.084C44.1815 112.879 45.9029 112.256 46.3998 113.167C46.7651 113.841 46.0645 114.87 45.6963 115.384C45.2203 116.045 44.5138 116.672 43.6905 116.829C42.8762 116.983 42.4751 115.719 42.023 115.238C41.8105 115.013 41.4033 115.125 41.3255 115.419C40.9603 116.82 42.1069 118.298 43.5887 118.232Z" fill="#096601"/>
<path d="M49.3935 107.449C49.3456 107.556 49.4744 107.722 49.6181 107.745C49.7139 107.763 49.8187 107.757 49.9174 107.742C50.1899 107.826 50.4952 107.547 50.6838 107.395C50.8904 107.229 51.103 107.161 51.3395 107.152C51.4143 107.401 51.4592 107.668 51.1808 107.757C50.8844 107.849 50.5671 107.852 50.2707 107.953C50.106 108.01 50.1719 108.262 50.3455 108.214C50.7317 108.11 51.1598 108.25 51.5281 108.102C52.028 107.9 52.0879 107.208 52.0639 106.754C52.052 106.564 51.9442 106.416 51.7616 106.36C51.2496 106.199 50.5521 106.235 50.0971 106.529C49.8546 106.686 49.4893 107.015 49.3576 107.339C49.3876 107.372 49.4115 107.407 49.3935 107.449Z" fill="#096601"/>
<path d="M49.3037 107.235C49.3037 107.345 49.3037 107.455 49.3037 107.564C49.3037 107.49 49.3277 107.41 49.3576 107.333C49.3337 107.303 49.3037 107.271 49.3037 107.235Z" fill="#096601"/>
<path d="M50.5851 117.393C50.5731 117.627 50.8784 117.734 51.0371 117.58C52.2286 116.416 58.5573 104.36 56.794 103.68C56.6503 103.624 56.5395 103.834 56.6473 103.932C56.6593 103.944 55.5905 106.081 55.5187 106.241C54.89 107.639 54.2194 109.018 53.5548 110.401C52.8752 111.817 52.1777 113.223 51.5041 114.642C51.097 115.496 50.636 116.431 50.5851 117.393Z" fill="#096601"/>
<path d="M56.3928 112.339C55.842 112.523 55.345 113.099 55.1085 113.609C54.9259 114.004 55.2881 114.431 55.7013 114.244C56.1054 114.484 56.5006 114.772 56.9796 114.766C57.7041 114.757 57.9974 113.915 58.2549 113.387C58.3447 113.203 58.3567 112.933 58.1771 112.787C57.6861 112.389 57.0275 112.128 56.3928 112.339ZM57.276 113.434C57.2071 113.737 57.0724 114.09 56.794 114.117C56.5635 114.137 56.303 114.084 56.0515 114.01C56.2491 113.841 56.4228 113.645 56.6233 113.476C56.8269 113.306 57.0514 113.348 57.276 113.434Z" fill="#096601"/>
<path d="M153.64 96.7422C155.544 96.9143 158.134 96.7808 159.759 95.6769C160.11 95.4395 159.981 94.9113 159.544 94.8905C158.763 94.8549 158.071 95.0745 157.314 95.2525C156.556 95.4306 155.802 95.5107 155.041 95.5255C156.667 93.8252 158.676 91.8578 158.754 89.5877C158.793 88.5016 158.358 87.1158 157.311 86.6084C156.374 86.1514 155.517 87.3235 155.293 88.0743C155.236 88.2672 155.461 88.4363 155.634 88.3325C155.922 88.1604 155.996 88.104 156.245 87.8785C157.044 87.1544 157.526 88.2998 157.61 88.9883C157.73 89.9794 157.107 90.9735 156.592 91.7628C155.646 93.2139 154.317 94.3653 153.188 95.668C152.811 96.0983 153.075 96.6917 153.64 96.7422Z" fill="#096601"/>
<path d="M159.903 93.2317C159.945 94.9676 160.966 95.9232 162.639 96.1339C165.037 96.4336 165.6 93.9765 165.352 92.1397C165.1 90.2761 164.349 87.739 162.801 86.5045C162.148 85.9822 161.301 85.917 160.768 86.6381C160.14 87.4867 160.25 88.736 160.496 89.7331C159.948 90.6678 159.885 92.4839 159.903 93.2317ZM163.996 91.8845C164.214 92.9142 164.43 94.8786 162.912 94.9142C161.391 94.9498 161.053 93.8163 161.104 92.5076C161.134 91.7955 161.265 91.0922 161.409 90.3978C161.49 90.0061 161.607 89.6708 161.4 89.3176C161.385 89.2939 161.367 89.2791 161.349 89.2613C161.454 88.6589 161.559 88.0417 161.807 87.5164C161.816 87.4956 161.822 87.4927 161.828 87.4778C161.909 87.5313 162.002 87.6084 162.092 87.7004C163.145 88.7687 163.693 90.4631 163.996 91.8845Z" fill="#096601"/>
<path d="M168.633 87.0268C168.645 87.3384 168.965 87.4274 169.205 87.282C169.244 87.2582 169.465 87.0297 169.378 87.1128C169.441 87.0505 169.486 86.9882 169.525 86.9229C169.603 86.8932 169.672 86.8784 169.755 86.8814C169.806 86.8962 169.815 86.8873 169.779 86.8487C169.806 86.8903 169.839 86.911 169.881 86.9318C170.007 86.9912 170.145 87.0327 170.282 87.0386C170.731 87.0594 170.905 86.4452 170.986 86.1187C171.052 85.8576 170.902 85.6588 170.669 85.5668C170.118 85.3413 169.306 85.4095 168.911 85.8932C168.759 86.0802 168.666 86.2908 168.612 86.5253C168.582 86.6499 168.582 86.7953 168.63 86.917C168.585 86.7894 168.639 87.1336 168.633 87.0268ZM170.178 86.4659C170.181 86.5104 170.178 86.5549 170.169 86.5935C170.184 86.5401 170.085 86.5757 170.022 86.5787C169.965 86.5787 169.899 86.5787 169.845 86.6084C169.797 86.6469 169.797 86.6469 169.848 86.6054C169.818 86.6024 169.788 86.6024 169.758 86.6024C169.738 86.6024 169.717 86.6084 169.696 86.6113C169.702 86.6054 169.705 86.5995 169.711 86.5935C169.72 86.5846 169.729 86.5757 169.738 86.5668C169.743 86.5639 169.746 86.5639 169.761 86.552C169.863 86.4837 170.016 86.4689 170.178 86.4659Z" fill="#096601"/>
<path d="M174.396 93.2554C174.159 93.5255 174.222 93.8489 174.453 94.027C174.468 94.0685 174.489 94.1041 174.536 94.119C175.012 94.2673 175.452 94.4929 175.964 94.4216C176.3 94.3742 176.584 94.1219 176.587 93.7688C176.596 92.7807 174.902 92.6768 174.396 93.2554Z" fill="#096601"/>
<path d="M168.824 98.122C170.794 96.0953 172.058 93.2376 173.249 90.7212C173.872 89.4037 174.491 88.0773 175.054 86.733C175.342 86.0475 176.198 84.8012 175.773 84.0653C175.74 84.0059 175.677 83.9911 175.614 84C174.83 84.1128 174.474 85.3502 174.168 85.9496C173.545 87.187 172.995 88.4601 172.396 89.7094C171.091 92.4275 169.627 94.9409 167.89 97.4039C167.495 97.9648 168.36 98.5998 168.824 98.122Z" fill="#096601"/>
<path d="M159.993 143.518C160.179 143.577 160.328 143.47 160.382 143.319C160.406 143.298 160.436 143.272 160.49 143.218C160.652 143.058 160.729 142.847 160.756 142.628C160.867 141.773 161.044 140.924 161.217 140.082C161.58 138.325 161.966 136.541 162.583 134.856C162.84 134.153 161.771 133.761 161.4 134.36C160.122 136.426 159.173 138.909 157.146 140.39C156.547 140.826 157.08 141.806 157.742 141.399C158.697 140.812 159.439 139.99 160.083 139.082C159.987 139.518 159.894 139.954 159.801 140.39C159.658 141.091 158.888 143.162 159.993 143.518Z" fill="#096601"/>
<path d="M168.917 134.185C169.309 133.503 168.342 133.001 167.887 133.589C167.097 134.61 165.394 135.067 164.157 134.728C163.732 134.613 163.313 135.209 163.699 135.509C164.543 136.168 165.777 136.096 166.867 135.672C166.438 136.684 166.067 137.731 165.726 138.77C165.277 138.82 164.828 138.877 164.379 138.927C163.496 139.028 162.595 139.061 161.771 139.417C161.379 139.586 161.657 140.18 162.02 140.117C162.933 140.221 163.87 140.088 164.78 140.004C164.969 139.987 165.157 139.966 165.343 139.942C165.313 140.031 165.286 140.123 165.256 140.209C165.037 140.889 164.699 141.702 165.184 142.349C165.454 142.708 165.912 142.586 165.95 142.138C165.953 142.117 165.944 142.099 165.941 142.082C165.986 142.067 166.037 142.019 166.091 141.927C166.247 141.66 166.283 141.307 166.361 141.013C166.483 140.547 166.627 140.085 166.777 139.625C167.106 139.512 167.429 139.369 167.735 139.18C167.971 139.034 167.869 138.684 167.597 138.672C167.429 138.666 167.262 138.672 167.094 138.675C167.097 138.666 167.1 138.654 167.103 138.645C167.612 137.147 168.127 135.562 168.917 134.185Z" fill="#096601"/>
<path d="M172.246 134.132C172.417 134.334 172.579 134.544 172.836 134.624C173.495 134.829 173.887 134.016 174.153 133.574C174.255 133.408 174.225 133.176 174.084 133.043C173.65 132.63 173.078 132.396 172.501 132.672C172.112 132.856 171.564 133.268 171.336 133.636C171.204 133.85 171.315 134.227 171.594 134.265C171.842 134.301 172.052 134.239 172.246 134.132ZM173.21 133.619C173.156 133.746 173.087 133.865 172.995 133.966C172.932 134.037 172.923 134.001 172.791 133.921C172.746 133.894 172.704 133.868 172.659 133.838C172.665 133.835 172.671 133.829 172.674 133.826C172.884 133.651 173.031 133.592 173.21 133.619Z" fill="#096601"/>
<path d="M170.669 144.263C170.692 144.669 171.219 144.832 171.444 144.47C172.004 143.574 172.243 142.5 172.632 141.521C173.138 140.251 173.8 139.043 174.45 137.841C175.62 135.669 176.967 133.595 178.129 131.42C178.362 130.983 177.746 130.633 177.467 131.037C175.958 133.221 174.489 135.423 173.156 137.717C172.117 139.509 170.54 142.126 170.669 144.263Z" fill="#096601"/>
<path d="M178.036 139.304C177.647 139.319 177.321 139.539 177.048 139.8C176.68 140.153 176.153 140.844 176.333 141.384C176.384 141.542 176.491 141.631 176.626 141.675C176.635 141.684 176.644 141.693 176.65 141.702C176.758 141.832 176.913 141.954 177.069 142.022C177.422 142.177 177.767 142.171 178.117 142.016C178.614 141.797 178.895 141.2 178.979 140.696C179.084 140.064 178.814 139.274 178.036 139.304Z" fill="#096601"/>
<path d="M151.733 187.762C152.578 184.988 152.341 182.023 153.374 179.258C153.598 178.655 152.673 178.311 152.356 178.833C151.129 180.848 149.144 182.178 147.761 184.026C147.608 184.231 147.859 184.507 148.081 184.439C149.033 184.154 149.698 183.483 150.413 182.804C150.778 182.46 151.132 182.098 151.479 181.73C151.03 183.679 150.787 185.736 150.701 187.626C150.674 188.228 151.566 188.311 151.733 187.762Z" fill="#096601"/>
<path d="M153.479 185.486C153.664 187.148 154.841 187.973 156.389 188.344C158.846 188.935 159.843 186.759 159.81 184.697C159.777 182.623 159.095 179.919 157.535 178.433C155.76 176.741 153.808 179.566 154.413 181.29C153.595 182.486 153.326 184.127 153.479 185.486ZM155.473 180.836C155.565 180.709 155.508 180.584 155.404 180.519C155.748 179.623 156.098 178.626 156.912 179.513C157.969 180.664 158.442 182.561 158.619 184.062C158.754 185.231 158.778 187.326 157.146 187.344C153.64 187.389 153.985 182.884 155.473 180.836Z" fill="#096601"/>
<path d="M161.933 179.083C162.083 178.97 162.226 178.824 162.262 178.632C162.271 178.59 162.274 178.507 162.277 178.424C162.394 178.471 162.508 178.525 162.618 178.587C162.663 178.614 162.678 178.629 162.684 178.64C162.603 178.783 162.445 178.89 162.313 178.979C162.026 179.172 161.753 179.27 161.562 179.566C161.505 179.655 161.562 179.762 161.654 179.795C162.325 180.017 163.334 179.46 163.579 178.81C163.9 177.955 162.69 177.477 162.098 177.305C161.942 177.261 161.714 177.299 161.61 177.433C161.271 177.866 161.364 178.27 161.394 178.777C161.403 179.014 161.696 179.258 161.933 179.083Z" fill="#096601"/>
<path d="M167.504 176.881C167.471 176.821 167.399 176.777 167.328 176.78C166.714 176.807 166.489 177.397 166.193 177.863C165.507 178.943 164.912 180.089 164.304 181.21C163.241 183.175 161.502 185.602 161.391 187.887C161.379 188.151 161.729 188.282 161.909 188.101C163.496 186.483 164.319 183.813 165.364 181.825C165.903 180.801 166.45 179.783 166.989 178.759C167.271 178.222 167.848 177.486 167.504 176.881Z" fill="#096601"/>
<path d="M166.789 184.842C166.492 184.949 166.232 185.133 166.031 185.374C165.723 185.742 165.549 186.101 165.627 186.584C165.675 186.872 166.022 186.932 166.241 186.831C166.286 186.81 166.316 186.78 166.358 186.757C166.417 186.792 166.474 186.828 166.54 186.84C166.69 186.869 166.828 186.884 166.98 186.869C167.271 186.843 167.531 186.733 167.756 186.543C168.127 186.228 168.244 185.709 168.025 185.276C167.804 184.828 167.244 184.682 166.789 184.842ZM167.043 185.837C167.04 185.834 167.043 185.837 167.04 185.831C167.043 185.834 167.043 185.834 167.043 185.837Z" fill="#096601"/>
<path d="M120.252 141.224C119.623 141.999 119.548 143.527 119.261 144.473C118.812 145.957 118.057 147.494 117.946 149.049C117.925 149.343 118.306 149.376 118.449 149.183C119.377 147.942 119.755 146.18 120.153 144.714C120.383 143.862 121.081 142.079 120.497 141.254C120.443 141.183 120.32 141.141 120.252 141.224Z" fill="#096601"/>
<path d="M132.535 141.553C132.475 141.717 132.723 141.865 132.834 141.726C133.762 140.562 134.256 139.188 134.606 137.764C135.028 136.058 135.525 134.334 135.864 132.613C135.912 132.372 135.615 132.254 135.475 132.449C134.609 133.66 134.316 135.173 133.969 136.592C133.556 138.274 133.139 139.93 132.535 141.553Z" fill="#096601"/>
<path d="M136.163 139.174C137.061 138.064 137.405 136.467 137.774 135.123C138.067 134.061 138.654 132.147 137.932 131.156C137.876 131.075 137.729 131.046 137.678 131.156C137.172 132.242 137.097 133.684 136.762 134.85C136.382 136.179 135.645 137.55 135.594 138.945C135.588 139.209 135.977 139.399 136.163 139.174Z" fill="#096601"/>
<path d="M108.612 162.293C108.163 164.604 108.064 167.204 108.379 169.533C108.402 169.708 108.69 169.792 108.723 169.578C109.079 167.237 109.447 164.64 109.031 162.293C108.992 162.085 108.651 162.088 108.612 162.293Z" fill="#096601"/>
<path d="M115.177 185.015C116.114 182.555 115.806 179.489 115.456 176.931C115.423 176.691 115.09 176.786 115.066 176.985C114.746 179.563 114.788 182.365 114.809 184.964C114.806 185.187 115.102 185.205 115.177 185.015Z" fill="#096601"/>
<path d="M116.8 188.21C117.213 185.727 117.171 182.934 116.839 180.442C116.8 180.139 116.405 180.139 116.366 180.442C116.036 182.934 115.995 185.727 116.408 188.21C116.441 188.403 116.77 188.403 116.8 188.21Z" fill="#096601"/>
</svg>
